<mxfile host="app.diagrams.net" modified="2023-12-21T16:21:29.519Z" agent="Mozilla/5.0 (Windows NT 10.0; Win64; x64) AppleWebKit/537.36 (KHTML, like Gecko) Chrome/120.0.0.0 Safari/537.36" etag="ot7sB8l86yKfp7K8Bp9N" version="22.1.11" type="github">
  <diagram name="Modelo E-R" id="7PH_Ci9F6IDVplq_TByE">
    <mxGraphModel dx="3348" dy="2660" grid="1" gridSize="10" guides="1" tooltips="1" connect="1" arrows="1" fold="1" page="1" pageScale="1" pageWidth="850" pageHeight="1100" background="none" math="0" shadow="0">
      <root>
        <mxCell id="0" />
        <mxCell id="1" parent="0" />
        <mxCell id="59e4zBMdZHTrfvDbMRgm-1" value="" style="rounded=0;whiteSpace=wrap;html=1;" parent="1" vertex="1">
          <mxGeometry x="70" y="-200" width="3010" height="1660" as="geometry" />
        </mxCell>
        <mxCell id="w49QsyoUhsdQdudKb_It-7" style="edgeStyle=orthogonalEdgeStyle;rounded=0;orthogonalLoop=1;jettySize=auto;html=1;entryX=0.5;entryY=1;entryDx=0;entryDy=0;" parent="1" source="4bZ0wKe7C5YbGH5dE9WU-77" target="1kCUsfdJUAUuM6tlL-a6-251" edge="1">
          <mxGeometry relative="1" as="geometry" />
        </mxCell>
        <mxCell id="KqJ0mgOLyfm1o9Krcu3l-20" value="Pertenece" style="edgeLabel;html=1;align=center;verticalAlign=middle;resizable=0;points=[];" parent="w49QsyoUhsdQdudKb_It-7" connectable="0" vertex="1">
          <mxGeometry x="0.3628" relative="1" as="geometry">
            <mxPoint x="-43" y="-4" as="offset" />
          </mxGeometry>
        </mxCell>
        <mxCell id="KqJ0mgOLyfm1o9Krcu3l-21" value="(1, 1)" style="edgeLabel;html=1;align=center;verticalAlign=middle;resizable=0;points=[];" parent="w49QsyoUhsdQdudKb_It-7" connectable="0" vertex="1">
          <mxGeometry x="0.4106" relative="1" as="geometry">
            <mxPoint x="20" as="offset" />
          </mxGeometry>
        </mxCell>
        <mxCell id="w49QsyoUhsdQdudKb_It-12" style="edgeStyle=orthogonalEdgeStyle;rounded=0;orthogonalLoop=1;jettySize=auto;html=1;entryX=0.5;entryY=1;entryDx=0;entryDy=0;" parent="1" source="4bZ0wKe7C5YbGH5dE9WU-77" target="GTJ9kHywWiIw0Ljh5JeB-1" edge="1">
          <mxGeometry relative="1" as="geometry" />
        </mxCell>
        <mxCell id="w49QsyoUhsdQdudKb_It-21" value="Tiene a cargo" style="edgeLabel;html=1;align=center;verticalAlign=middle;resizable=0;points=[];" parent="w49QsyoUhsdQdudKb_It-12" connectable="0" vertex="1">
          <mxGeometry x="-0.4957" y="2" relative="1" as="geometry">
            <mxPoint y="-12" as="offset" />
          </mxGeometry>
        </mxCell>
        <mxCell id="w49QsyoUhsdQdudKb_It-22" value="(0, n)" style="edgeLabel;html=1;align=center;verticalAlign=middle;resizable=0;points=[];" parent="w49QsyoUhsdQdudKb_It-12" connectable="0" vertex="1">
          <mxGeometry x="-0.4882" relative="1" as="geometry">
            <mxPoint y="14" as="offset" />
          </mxGeometry>
        </mxCell>
        <mxCell id="i4JJ-DvGvFb-LeGQvSu3-56" style="edgeStyle=orthogonalEdgeStyle;rounded=0;orthogonalLoop=1;jettySize=auto;html=1;entryX=0.5;entryY=0;entryDx=0;entryDy=0;endArrow=none;endFill=0;" parent="1" source="4bZ0wKe7C5YbGH5dE9WU-77" target="i4JJ-DvGvFb-LeGQvSu3-55" edge="1">
          <mxGeometry relative="1" as="geometry" />
        </mxCell>
        <mxCell id="i4JJ-DvGvFb-LeGQvSu3-64" value="Es realizada por" style="edgeLabel;html=1;align=center;verticalAlign=middle;resizable=0;points=[];" parent="i4JJ-DvGvFb-LeGQvSu3-56" connectable="0" vertex="1">
          <mxGeometry x="0.0628" y="-1" relative="1" as="geometry">
            <mxPoint x="-46" y="-39" as="offset" />
          </mxGeometry>
        </mxCell>
        <mxCell id="i4JJ-DvGvFb-LeGQvSu3-65" value="(1, 1)" style="edgeLabel;html=1;align=center;verticalAlign=middle;resizable=0;points=[];" parent="i4JJ-DvGvFb-LeGQvSu3-56" connectable="0" vertex="1">
          <mxGeometry x="-0.0685" y="1" relative="1" as="geometry">
            <mxPoint x="19" y="-10" as="offset" />
          </mxGeometry>
        </mxCell>
        <mxCell id="4bZ0wKe7C5YbGH5dE9WU-77" value="TRABAJADOR" style="rounded=0;whiteSpace=wrap;html=1;fillColor=#f5f5f5;strokeColor=#666666;fontColor=#333333;" parent="1" vertex="1">
          <mxGeometry x="1040" y="575.93" width="120" height="60" as="geometry" />
        </mxCell>
        <mxCell id="4bZ0wKe7C5YbGH5dE9WU-78" value="" style="ellipse;whiteSpace=wrap;html=1;aspect=fixed;fillColor=#FFFFFF;" parent="1" vertex="1">
          <mxGeometry x="956.25" y="769.5" width="40" height="40" as="geometry" />
        </mxCell>
        <mxCell id="4bZ0wKe7C5YbGH5dE9WU-79" value="" style="endArrow=none;html=1;rounded=0;" parent="1" source="4bZ0wKe7C5YbGH5dE9WU-82" target="1kCUsfdJUAUuM6tlL-a6-53" edge="1">
          <mxGeometry width="50" height="50" relative="1" as="geometry">
            <mxPoint x="1115" y="696.5" as="sourcePoint" />
            <mxPoint x="985" y="836.5" as="targetPoint" />
          </mxGeometry>
        </mxCell>
        <mxCell id="4bZ0wKe7C5YbGH5dE9WU-80" value="" style="ellipse;whiteSpace=wrap;html=1;aspect=fixed;fillColor=#000000;" parent="1" vertex="1">
          <mxGeometry x="898.75" y="629.25" width="40" height="40" as="geometry" />
        </mxCell>
        <mxCell id="4bZ0wKe7C5YbGH5dE9WU-81" value="" style="endArrow=none;html=1;rounded=0;" parent="1" source="4bZ0wKe7C5YbGH5dE9WU-80" target="4bZ0wKe7C5YbGH5dE9WU-77" edge="1">
          <mxGeometry width="50" height="50" relative="1" as="geometry">
            <mxPoint x="1025" y="691.5" as="sourcePoint" />
            <mxPoint x="1065" y="716.5" as="targetPoint" />
          </mxGeometry>
        </mxCell>
        <mxCell id="4bZ0wKe7C5YbGH5dE9WU-82" value="" style="ellipse;whiteSpace=wrap;html=1;aspect=fixed;fillColor=#FFFFFF;" parent="1" vertex="1">
          <mxGeometry x="973.75" y="659" width="40" height="40" as="geometry" />
        </mxCell>
        <mxCell id="4bZ0wKe7C5YbGH5dE9WU-83" value="" style="endArrow=none;html=1;rounded=0;entryX=0.25;entryY=1;entryDx=0;entryDy=0;" parent="1" source="4bZ0wKe7C5YbGH5dE9WU-82" edge="1">
          <mxGeometry width="50" height="50" relative="1" as="geometry">
            <mxPoint x="1065" y="696.5" as="sourcePoint" />
            <mxPoint x="1075" y="636.5" as="targetPoint" />
          </mxGeometry>
        </mxCell>
        <mxCell id="4bZ0wKe7C5YbGH5dE9WU-84" value="DNI" style="text;html=1;align=center;verticalAlign=middle;resizable=0;points=[];autosize=1;strokeColor=none;fillColor=none;" parent="1" vertex="1">
          <mxGeometry x="868.75" y="662.25" width="40" height="30" as="geometry" />
        </mxCell>
        <mxCell id="4bZ0wKe7C5YbGH5dE9WU-85" value="Nombre&lt;br&gt;completo" style="text;html=1;align=center;verticalAlign=middle;resizable=0;points=[];autosize=1;strokeColor=none;fillColor=none;" parent="1" vertex="1">
          <mxGeometry x="987.25" y="699" width="70" height="40" as="geometry" />
        </mxCell>
        <mxCell id="4bZ0wKe7C5YbGH5dE9WU-86" value="Apellidos" style="text;html=1;align=center;verticalAlign=middle;resizable=0;points=[];autosize=1;strokeColor=none;fillColor=none;" parent="1" vertex="1">
          <mxGeometry x="883.75" y="773.37" width="70" height="30" as="geometry" />
        </mxCell>
        <mxCell id="4bZ0wKe7C5YbGH5dE9WU-87" value="" style="ellipse;whiteSpace=wrap;html=1;aspect=fixed;fillColor=#FFFFFF;" parent="1" vertex="1">
          <mxGeometry x="1165" y="686.5" width="40" height="40" as="geometry" />
        </mxCell>
        <mxCell id="4bZ0wKe7C5YbGH5dE9WU-88" value="" style="endArrow=none;html=1;rounded=0;" parent="1" source="4bZ0wKe7C5YbGH5dE9WU-87" target="4bZ0wKe7C5YbGH5dE9WU-77" edge="1">
          <mxGeometry width="50" height="50" relative="1" as="geometry">
            <mxPoint x="1125" y="706.5" as="sourcePoint" />
            <mxPoint x="1135" y="646.5" as="targetPoint" />
          </mxGeometry>
        </mxCell>
        <mxCell id="4bZ0wKe7C5YbGH5dE9WU-89" value="" style="ellipse;whiteSpace=wrap;html=1;aspect=fixed;fillColor=#FFFFFF;" parent="1" vertex="1">
          <mxGeometry x="870" y="847" width="40" height="40" as="geometry" />
        </mxCell>
        <mxCell id="4bZ0wKe7C5YbGH5dE9WU-90" value="" style="endArrow=none;html=1;rounded=0;exitX=0.5;exitY=0;exitDx=0;exitDy=0;" parent="1" source="4bZ0wKe7C5YbGH5dE9WU-89" target="4bZ0wKe7C5YbGH5dE9WU-78" edge="1">
          <mxGeometry width="50" height="50" relative="1" as="geometry">
            <mxPoint x="1125" y="692.5" as="sourcePoint" />
            <mxPoint x="1145" y="634.5" as="targetPoint" />
          </mxGeometry>
        </mxCell>
        <mxCell id="4bZ0wKe7C5YbGH5dE9WU-91" value="" style="ellipse;whiteSpace=wrap;html=1;aspect=fixed;fillColor=#FFFFFF;" parent="1" vertex="1">
          <mxGeometry x="956" y="853.37" width="40" height="40" as="geometry" />
        </mxCell>
        <mxCell id="4bZ0wKe7C5YbGH5dE9WU-92" value="" style="endArrow=none;html=1;rounded=0;exitX=0.5;exitY=0;exitDx=0;exitDy=0;" parent="1" source="4bZ0wKe7C5YbGH5dE9WU-91" target="4bZ0wKe7C5YbGH5dE9WU-78" edge="1">
          <mxGeometry width="50" height="50" relative="1" as="geometry">
            <mxPoint x="1135" y="702.5" as="sourcePoint" />
            <mxPoint x="1165" y="634.5" as="targetPoint" />
          </mxGeometry>
        </mxCell>
        <mxCell id="4bZ0wKe7C5YbGH5dE9WU-93" value="Apellido 1" style="text;html=1;align=center;verticalAlign=middle;resizable=0;points=[];autosize=1;strokeColor=none;fillColor=none;" parent="1" vertex="1">
          <mxGeometry x="850" y="887" width="80" height="30" as="geometry" />
        </mxCell>
        <mxCell id="4bZ0wKe7C5YbGH5dE9WU-94" value="Apellido 2" style="text;html=1;align=center;verticalAlign=middle;resizable=0;points=[];autosize=1;strokeColor=none;fillColor=none;" parent="1" vertex="1">
          <mxGeometry x="946" y="893.37" width="80" height="30" as="geometry" />
        </mxCell>
        <mxCell id="4bZ0wKe7C5YbGH5dE9WU-101" value="" style="ellipse;whiteSpace=wrap;html=1;aspect=fixed;fillColor=#FFFFFF;" parent="1" vertex="1">
          <mxGeometry x="1217.9700000000003" y="623.25" width="40" height="40" as="geometry" />
        </mxCell>
        <mxCell id="4bZ0wKe7C5YbGH5dE9WU-102" value="" style="endArrow=none;html=1;rounded=0;" parent="1" source="4bZ0wKe7C5YbGH5dE9WU-101" target="4bZ0wKe7C5YbGH5dE9WU-77" edge="1">
          <mxGeometry width="50" height="50" relative="1" as="geometry">
            <mxPoint x="1255" y="331.5" as="sourcePoint" />
            <mxPoint x="1295" y="261.5" as="targetPoint" />
          </mxGeometry>
        </mxCell>
        <mxCell id="4bZ0wKe7C5YbGH5dE9WU-103" value="" style="ellipse;whiteSpace=wrap;html=1;aspect=fixed;fillColor=#FFFFFF;" parent="1" vertex="1">
          <mxGeometry x="942.25" y="523.25" width="40" height="40" as="geometry" />
        </mxCell>
        <mxCell id="4bZ0wKe7C5YbGH5dE9WU-104" value="" style="endArrow=none;html=1;rounded=0;" parent="1" source="1kCUsfdJUAUuM6tlL-a6-52" target="4bZ0wKe7C5YbGH5dE9WU-77" edge="1">
          <mxGeometry width="50" height="50" relative="1" as="geometry">
            <mxPoint x="1185" y="324.5" as="sourcePoint" />
            <mxPoint x="1225" y="254.5" as="targetPoint" />
          </mxGeometry>
        </mxCell>
        <mxCell id="4bZ0wKe7C5YbGH5dE9WU-107" value="" style="ellipse;whiteSpace=wrap;html=1;aspect=fixed;fillColor=#FFFFFF;" parent="1" vertex="1">
          <mxGeometry x="927.25" y="574.25" width="40" height="40" as="geometry" />
        </mxCell>
        <mxCell id="4bZ0wKe7C5YbGH5dE9WU-108" value="" style="endArrow=none;html=1;rounded=0;" parent="1" source="1kCUsfdJUAUuM6tlL-a6-51" target="4bZ0wKe7C5YbGH5dE9WU-77" edge="1">
          <mxGeometry width="50" height="50" relative="1" as="geometry">
            <mxPoint x="905.0000000000001" y="606.5" as="sourcePoint" />
            <mxPoint x="945" y="536.5" as="targetPoint" />
          </mxGeometry>
        </mxCell>
        <mxCell id="4bZ0wKe7C5YbGH5dE9WU-120" value="Fecha de&lt;br&gt;nacimiento" style="text;html=1;align=center;verticalAlign=middle;resizable=0;points=[];autosize=1;strokeColor=none;fillColor=none;" parent="1" vertex="1">
          <mxGeometry x="1155" y="726.5" width="80" height="40" as="geometry" />
        </mxCell>
        <mxCell id="4bZ0wKe7C5YbGH5dE9WU-123" value="Email" style="text;html=1;align=center;verticalAlign=middle;resizable=0;points=[];autosize=1;strokeColor=none;fillColor=none;" parent="1" vertex="1">
          <mxGeometry x="887.2500000000001" y="599.25" width="50" height="30" as="geometry" />
        </mxCell>
        <mxCell id="4bZ0wKe7C5YbGH5dE9WU-124" value="Teléfono" style="text;html=1;align=center;verticalAlign=middle;resizable=0;points=[];autosize=1;strokeColor=none;fillColor=none;" parent="1" vertex="1">
          <mxGeometry x="877.25" y="521.25" width="70" height="30" as="geometry" />
        </mxCell>
        <mxCell id="4bZ0wKe7C5YbGH5dE9WU-125" value="Nombre de usuario" style="text;html=1;align=center;verticalAlign=middle;resizable=0;points=[];autosize=1;strokeColor=none;fillColor=none;" parent="1" vertex="1">
          <mxGeometry x="1246.2100000000005" y="644.25" width="130" height="30" as="geometry" />
        </mxCell>
        <mxCell id="4bZ0wKe7C5YbGH5dE9WU-126" value="" style="endArrow=none;html=1;rounded=0;" parent="1" source="4bZ0wKe7C5YbGH5dE9WU-127" target="4bZ0wKe7C5YbGH5dE9WU-77" edge="1">
          <mxGeometry width="50" height="50" relative="1" as="geometry">
            <mxPoint x="1275" y="526.5" as="sourcePoint" />
            <mxPoint x="1175" y="601.5" as="targetPoint" />
          </mxGeometry>
        </mxCell>
        <mxCell id="4bZ0wKe7C5YbGH5dE9WU-127" value="" style="ellipse;whiteSpace=wrap;html=1;aspect=fixed;fillColor=#FFFFFF;" parent="1" vertex="1">
          <mxGeometry x="1115" y="485.75" width="40" height="40" as="geometry" />
        </mxCell>
        <mxCell id="4bZ0wKe7C5YbGH5dE9WU-128" value="Contraseña" style="text;html=1;align=center;verticalAlign=middle;resizable=0;points=[];autosize=1;strokeColor=none;fillColor=none;" parent="1" vertex="1">
          <mxGeometry x="1145" y="490.75" width="90" height="30" as="geometry" />
        </mxCell>
        <mxCell id="4bZ0wKe7C5YbGH5dE9WU-129" value="" style="endArrow=none;html=1;rounded=0;" parent="1" source="4bZ0wKe7C5YbGH5dE9WU-130" target="4bZ0wKe7C5YbGH5dE9WU-77" edge="1">
          <mxGeometry width="50" height="50" relative="1" as="geometry">
            <mxPoint x="955" y="526.5" as="sourcePoint" />
            <mxPoint x="1175" y="586.5" as="targetPoint" />
          </mxGeometry>
        </mxCell>
        <mxCell id="4bZ0wKe7C5YbGH5dE9WU-130" value="" style="ellipse;whiteSpace=wrap;html=1;aspect=fixed;fillColor=#FFFFFF;dashed=1;" parent="1" vertex="1">
          <mxGeometry x="971.25" y="481.25" width="40" height="40" as="geometry" />
        </mxCell>
        <mxCell id="4bZ0wKe7C5YbGH5dE9WU-131" value="Activo?" style="text;html=1;align=center;verticalAlign=middle;resizable=0;points=[];autosize=1;strokeColor=none;fillColor=none;" parent="1" vertex="1">
          <mxGeometry x="911.25" y="476.25" width="60" height="30" as="geometry" />
        </mxCell>
        <mxCell id="1kCUsfdJUAUuM6tlL-a6-18" value="" style="ellipse;whiteSpace=wrap;html=1;aspect=fixed;fillColor=#FFFFFF;" parent="1" vertex="1">
          <mxGeometry x="1002.25" y="-40.00000000000006" width="40" height="40" as="geometry" />
        </mxCell>
        <mxCell id="1kCUsfdJUAUuM6tlL-a6-19" value="" style="ellipse;whiteSpace=wrap;html=1;aspect=fixed;fillColor=#FFFFFF;" parent="1" vertex="1">
          <mxGeometry x="1077.5" y="-53.75000000000006" width="40" height="40" as="geometry" />
        </mxCell>
        <mxCell id="1kCUsfdJUAUuM6tlL-a6-20" value="" style="ellipse;whiteSpace=wrap;html=1;aspect=fixed;fillColor=#FFFFFF;" parent="1" vertex="1">
          <mxGeometry x="1150" y="-40.00000000000006" width="40" height="40" as="geometry" />
        </mxCell>
        <mxCell id="1kCUsfdJUAUuM6tlL-a6-21" value="" style="endArrow=none;html=1;rounded=0;" parent="1" source="1kCUsfdJUAUuM6tlL-a6-195" target="1kCUsfdJUAUuM6tlL-a6-18" edge="1">
          <mxGeometry width="50" height="50" relative="1" as="geometry">
            <mxPoint x="1356" y="213" as="sourcePoint" />
            <mxPoint x="1394" y="157" as="targetPoint" />
          </mxGeometry>
        </mxCell>
        <mxCell id="1kCUsfdJUAUuM6tlL-a6-22" value="" style="endArrow=none;html=1;rounded=0;" parent="1" source="1kCUsfdJUAUuM6tlL-a6-195" target="1kCUsfdJUAUuM6tlL-a6-19" edge="1">
          <mxGeometry width="50" height="50" relative="1" as="geometry">
            <mxPoint x="1366" y="223" as="sourcePoint" />
            <mxPoint x="1404" y="167" as="targetPoint" />
          </mxGeometry>
        </mxCell>
        <mxCell id="1kCUsfdJUAUuM6tlL-a6-23" value="" style="endArrow=none;html=1;rounded=0;" parent="1" source="1kCUsfdJUAUuM6tlL-a6-195" target="1kCUsfdJUAUuM6tlL-a6-20" edge="1">
          <mxGeometry width="50" height="50" relative="1" as="geometry">
            <mxPoint x="1376" y="233" as="sourcePoint" />
            <mxPoint x="1414" y="177" as="targetPoint" />
          </mxGeometry>
        </mxCell>
        <mxCell id="1kCUsfdJUAUuM6tlL-a6-24" value="Ciudad" style="text;html=1;strokeColor=none;fillColor=none;align=center;verticalAlign=middle;whiteSpace=wrap;rounded=0;" parent="1" vertex="1">
          <mxGeometry x="1007.25" y="-70.00000000000006" width="30" height="30" as="geometry" />
        </mxCell>
        <mxCell id="1kCUsfdJUAUuM6tlL-a6-25" value="Código postal" style="text;html=1;strokeColor=none;fillColor=none;align=center;verticalAlign=middle;whiteSpace=wrap;rounded=0;" parent="1" vertex="1">
          <mxGeometry x="1055" y="-83.75" width="85" height="30" as="geometry" />
        </mxCell>
        <mxCell id="1kCUsfdJUAUuM6tlL-a6-26" value="Dirección 1" style="text;html=1;strokeColor=none;fillColor=none;align=center;verticalAlign=middle;whiteSpace=wrap;rounded=0;" parent="1" vertex="1">
          <mxGeometry x="1145" y="-70" width="65" height="30" as="geometry" />
        </mxCell>
        <mxCell id="1kCUsfdJUAUuM6tlL-a6-27" value="" style="ellipse;whiteSpace=wrap;html=1;aspect=fixed;fillColor=#FFFFFF;" parent="1" vertex="1">
          <mxGeometry x="1170" y="10" width="40" height="40" as="geometry" />
        </mxCell>
        <mxCell id="1kCUsfdJUAUuM6tlL-a6-28" value="" style="endArrow=none;html=1;rounded=0;" parent="1" source="1kCUsfdJUAUuM6tlL-a6-195" target="1kCUsfdJUAUuM6tlL-a6-27" edge="1">
          <mxGeometry width="50" height="50" relative="1" as="geometry">
            <mxPoint x="1416" y="123" as="sourcePoint" />
            <mxPoint x="1474" y="32" as="targetPoint" />
          </mxGeometry>
        </mxCell>
        <mxCell id="1kCUsfdJUAUuM6tlL-a6-29" value="Dirección 2" style="text;html=1;strokeColor=none;fillColor=none;align=center;verticalAlign=middle;whiteSpace=wrap;rounded=0;" parent="1" vertex="1">
          <mxGeometry x="1210" y="-13.75" width="65" height="30" as="geometry" />
        </mxCell>
        <mxCell id="1kCUsfdJUAUuM6tlL-a6-51" value="" style="ellipse;whiteSpace=wrap;html=1;aspect=fixed;fillColor=#FFFFFF;" parent="1" vertex="1">
          <mxGeometry x="931" y="578" width="32.5" height="32.5" as="geometry" />
        </mxCell>
        <mxCell id="1kCUsfdJUAUuM6tlL-a6-52" value="" style="ellipse;whiteSpace=wrap;html=1;aspect=fixed;fillColor=#FFFFFF;" parent="1" vertex="1">
          <mxGeometry x="946" y="527" width="32.5" height="32.5" as="geometry" />
        </mxCell>
        <mxCell id="1kCUsfdJUAUuM6tlL-a6-53" value="" style="ellipse;whiteSpace=wrap;html=1;aspect=fixed;fillColor=#FFFFFF;" parent="1" vertex="1">
          <mxGeometry x="891" y="704.5" width="40" height="40" as="geometry" />
        </mxCell>
        <mxCell id="1kCUsfdJUAUuM6tlL-a6-54" value="" style="endArrow=none;html=1;rounded=0;" parent="1" source="4bZ0wKe7C5YbGH5dE9WU-82" target="4bZ0wKe7C5YbGH5dE9WU-78" edge="1">
          <mxGeometry width="50" height="50" relative="1" as="geometry">
            <mxPoint x="1047" y="735.5" as="sourcePoint" />
            <mxPoint x="1003" y="755.5" as="targetPoint" />
          </mxGeometry>
        </mxCell>
        <mxCell id="1kCUsfdJUAUuM6tlL-a6-55" value="Nombre" style="text;html=1;align=center;verticalAlign=middle;resizable=0;points=[];autosize=1;strokeColor=none;fillColor=none;" parent="1" vertex="1">
          <mxGeometry x="817.2500000000001" y="711.5" width="70" height="30" as="geometry" />
        </mxCell>
        <mxCell id="1kCUsfdJUAUuM6tlL-a6-56" value="" style="ellipse;whiteSpace=wrap;html=1;aspect=fixed;fillColor=#FFFFFF;dashed=1;" parent="1" vertex="1">
          <mxGeometry x="1032.5" y="476.5" width="40" height="40" as="geometry" />
        </mxCell>
        <mxCell id="1kCUsfdJUAUuM6tlL-a6-57" value="" style="endArrow=none;html=1;rounded=0;" parent="1" source="1kCUsfdJUAUuM6tlL-a6-56" target="4bZ0wKe7C5YbGH5dE9WU-77" edge="1">
          <mxGeometry width="50" height="50" relative="1" as="geometry">
            <mxPoint x="1255" y="546.5" as="sourcePoint" />
            <mxPoint x="1175" y="586.5" as="targetPoint" />
          </mxGeometry>
        </mxCell>
        <mxCell id="1kCUsfdJUAUuM6tlL-a6-58" value="Edad" style="text;html=1;align=center;verticalAlign=middle;resizable=0;points=[];autosize=1;strokeColor=none;fillColor=none;" parent="1" vertex="1">
          <mxGeometry x="1027.5" y="446.5" width="50" height="30" as="geometry" />
        </mxCell>
        <mxCell id="1kCUsfdJUAUuM6tlL-a6-66" value="" style="ellipse;whiteSpace=wrap;html=1;aspect=fixed;fillColor=#FFFFFF;dashed=1;" parent="1" vertex="1">
          <mxGeometry x="1245" y="681.75" width="40" height="40" as="geometry" />
        </mxCell>
        <mxCell id="1kCUsfdJUAUuM6tlL-a6-68" value="" style="endArrow=none;html=1;rounded=0;" parent="1" source="1kCUsfdJUAUuM6tlL-a6-66" target="4bZ0wKe7C5YbGH5dE9WU-77" edge="1">
          <mxGeometry width="50" height="50" relative="1" as="geometry">
            <mxPoint x="1090" y="518.5" as="sourcePoint" />
            <mxPoint x="1107" y="586.5" as="targetPoint" />
          </mxGeometry>
        </mxCell>
        <mxCell id="i4JJ-DvGvFb-LeGQvSu3-53" style="edgeStyle=orthogonalEdgeStyle;rounded=0;orthogonalLoop=1;jettySize=auto;html=1;entryX=0;entryY=0.5;entryDx=0;entryDy=0;exitX=0;exitY=0.5;exitDx=0;exitDy=0;endArrow=none;endFill=0;" parent="1" source="1kCUsfdJUAUuM6tlL-a6-70" target="i4JJ-DvGvFb-LeGQvSu3-52" edge="1">
          <mxGeometry relative="1" as="geometry">
            <Array as="points">
              <mxPoint x="240" y="428" />
              <mxPoint x="240" y="1376" />
            </Array>
          </mxGeometry>
        </mxCell>
        <mxCell id="i4JJ-DvGvFb-LeGQvSu3-66" value="Es solicitada por" style="edgeLabel;html=1;align=center;verticalAlign=middle;resizable=0;points=[];" parent="i4JJ-DvGvFb-LeGQvSu3-53" connectable="0" vertex="1">
          <mxGeometry x="-0.8634" y="4" relative="1" as="geometry">
            <mxPoint x="25" y="-19" as="offset" />
          </mxGeometry>
        </mxCell>
        <mxCell id="i4JJ-DvGvFb-LeGQvSu3-67" value="(1, 1)" style="edgeLabel;html=1;align=center;verticalAlign=middle;resizable=0;points=[];" parent="i4JJ-DvGvFb-LeGQvSu3-53" connectable="0" vertex="1">
          <mxGeometry x="-0.8792" y="2" relative="1" as="geometry">
            <mxPoint y="10" as="offset" />
          </mxGeometry>
        </mxCell>
        <mxCell id="1kCUsfdJUAUuM6tlL-a6-70" value="USUARIO" style="rounded=0;whiteSpace=wrap;html=1;fillColor=#f5f5f5;strokeColor=#666666;fontColor=#333333;" parent="1" vertex="1">
          <mxGeometry x="513.75" y="397.75" width="120" height="60" as="geometry" />
        </mxCell>
        <mxCell id="1kCUsfdJUAUuM6tlL-a6-90" value="" style="ellipse;whiteSpace=wrap;html=1;aspect=fixed;fillColor=#FFFFFF;" parent="1" vertex="1">
          <mxGeometry x="455" y="298.25" width="40" height="40" as="geometry" />
        </mxCell>
        <mxCell id="1kCUsfdJUAUuM6tlL-a6-91" value="" style="endArrow=none;html=1;rounded=0;" parent="1" source="1kCUsfdJUAUuM6tlL-a6-114" target="1kCUsfdJUAUuM6tlL-a6-70" edge="1">
          <mxGeometry width="50" height="50" relative="1" as="geometry">
            <mxPoint x="653.75" y="145.75" as="sourcePoint" />
            <mxPoint x="693.75" y="75.75" as="targetPoint" />
          </mxGeometry>
        </mxCell>
        <mxCell id="1kCUsfdJUAUuM6tlL-a6-94" value="" style="ellipse;whiteSpace=wrap;html=1;aspect=fixed;fillColor=#FFFFFF;" parent="1" vertex="1">
          <mxGeometry x="423.75" y="351.25" width="40" height="40" as="geometry" />
        </mxCell>
        <mxCell id="1kCUsfdJUAUuM6tlL-a6-101" value="Email" style="text;html=1;align=center;verticalAlign=middle;resizable=0;points=[];autosize=1;strokeColor=none;fillColor=none;" parent="1" vertex="1">
          <mxGeometry x="371.25" y="354.5" width="50" height="30" as="geometry" />
        </mxCell>
        <mxCell id="1kCUsfdJUAUuM6tlL-a6-102" value="Teléfono" style="text;html=1;align=center;verticalAlign=middle;resizable=0;points=[];autosize=1;strokeColor=none;fillColor=none;" parent="1" vertex="1">
          <mxGeometry x="390" y="296.25" width="70" height="30" as="geometry" />
        </mxCell>
        <mxCell id="1kCUsfdJUAUuM6tlL-a6-113" value="" style="ellipse;whiteSpace=wrap;html=1;aspect=fixed;fillColor=#FFFFFF;" parent="1" vertex="1">
          <mxGeometry x="427.5" y="355" width="32.5" height="32.5" as="geometry" />
        </mxCell>
        <mxCell id="1kCUsfdJUAUuM6tlL-a6-114" value="" style="ellipse;whiteSpace=wrap;html=1;aspect=fixed;fillColor=#FFFFFF;" parent="1" vertex="1">
          <mxGeometry x="458.75" y="302" width="32.5" height="32.5" as="geometry" />
        </mxCell>
        <mxCell id="1kCUsfdJUAUuM6tlL-a6-118" value="" style="ellipse;whiteSpace=wrap;html=1;aspect=fixed;fillColor=#FFFFFF;dashed=1;" parent="1" vertex="1">
          <mxGeometry x="413.75" y="478.25" width="40" height="40" as="geometry" />
        </mxCell>
        <mxCell id="1kCUsfdJUAUuM6tlL-a6-119" value="" style="endArrow=none;html=1;rounded=0;" parent="1" source="1kCUsfdJUAUuM6tlL-a6-118" target="1kCUsfdJUAUuM6tlL-a6-70" edge="1">
          <mxGeometry width="50" height="50" relative="1" as="geometry">
            <mxPoint x="723.75" y="367.75" as="sourcePoint" />
            <mxPoint x="643.75" y="407.75" as="targetPoint" />
          </mxGeometry>
        </mxCell>
        <mxCell id="1kCUsfdJUAUuM6tlL-a6-120" value="Edad" style="text;html=1;align=center;verticalAlign=middle;resizable=0;points=[];autosize=1;strokeColor=none;fillColor=none;" parent="1" vertex="1">
          <mxGeometry x="408.75" y="448.25" width="50" height="30" as="geometry" />
        </mxCell>
        <mxCell id="1kCUsfdJUAUuM6tlL-a6-128" value="" style="ellipse;whiteSpace=wrap;html=1;aspect=fixed;fillColor=#FFFFFF;" parent="1" vertex="1">
          <mxGeometry x="468.75" y="536" width="40" height="40" as="geometry" />
        </mxCell>
        <mxCell id="1kCUsfdJUAUuM6tlL-a6-129" value="Sexo" style="text;html=1;align=center;verticalAlign=middle;resizable=0;points=[];autosize=1;strokeColor=none;fillColor=none;" parent="1" vertex="1">
          <mxGeometry x="463.75" y="507" width="50" height="30" as="geometry" />
        </mxCell>
        <mxCell id="1kCUsfdJUAUuM6tlL-a6-130" value="" style="endArrow=none;html=1;rounded=0;" parent="1" source="1kCUsfdJUAUuM6tlL-a6-128" target="1kCUsfdJUAUuM6tlL-a6-70" edge="1">
          <mxGeometry width="50" height="50" relative="1" as="geometry">
            <mxPoint x="558.75" y="339.75" as="sourcePoint" />
            <mxPoint x="575.75" y="407.75" as="targetPoint" />
          </mxGeometry>
        </mxCell>
        <mxCell id="1kCUsfdJUAUuM6tlL-a6-131" value="" style="endArrow=none;html=1;rounded=0;" parent="1" source="1kCUsfdJUAUuM6tlL-a6-113" target="1kCUsfdJUAUuM6tlL-a6-70" edge="1">
          <mxGeometry width="50" height="50" relative="1" as="geometry">
            <mxPoint x="439.75" y="419.25" as="sourcePoint" />
            <mxPoint x="523.75" y="430.25" as="targetPoint" />
          </mxGeometry>
        </mxCell>
        <mxCell id="1kCUsfdJUAUuM6tlL-a6-132" value="" style="ellipse;whiteSpace=wrap;html=1;aspect=fixed;fillColor=#000000;" parent="1" vertex="1">
          <mxGeometry x="523.75" y="335" width="40" height="40" as="geometry" />
        </mxCell>
        <mxCell id="1kCUsfdJUAUuM6tlL-a6-133" value="ID" style="text;html=1;strokeColor=none;fillColor=none;align=center;verticalAlign=middle;whiteSpace=wrap;rounded=0;" parent="1" vertex="1">
          <mxGeometry x="528.75" y="307" width="30" height="30" as="geometry" />
        </mxCell>
        <mxCell id="1kCUsfdJUAUuM6tlL-a6-134" value="" style="endArrow=none;html=1;rounded=0;" parent="1" source="1kCUsfdJUAUuM6tlL-a6-132" target="1kCUsfdJUAUuM6tlL-a6-70" edge="1">
          <mxGeometry width="50" height="50" relative="1" as="geometry">
            <mxPoint x="613.75" y="332.25" as="sourcePoint" />
            <mxPoint x="591.75" y="408.25" as="targetPoint" />
          </mxGeometry>
        </mxCell>
        <mxCell id="1kCUsfdJUAUuM6tlL-a6-135" value="" style="ellipse;whiteSpace=wrap;html=1;aspect=fixed;fillColor=#FFFFFF;" parent="1" vertex="1">
          <mxGeometry x="868.75" y="407.75" width="40" height="40" as="geometry" />
        </mxCell>
        <mxCell id="1kCUsfdJUAUuM6tlL-a6-136" value="" style="endArrow=none;html=1;rounded=0;" parent="1" source="1kCUsfdJUAUuM6tlL-a6-137" target="1kCUsfdJUAUuM6tlL-a6-147" edge="1">
          <mxGeometry width="50" height="50" relative="1" as="geometry">
            <mxPoint x="508.75" y="468.25" as="sourcePoint" />
            <mxPoint x="378.75" y="608.25" as="targetPoint" />
          </mxGeometry>
        </mxCell>
        <mxCell id="1kCUsfdJUAUuM6tlL-a6-137" value="" style="ellipse;whiteSpace=wrap;html=1;aspect=fixed;fillColor=#FFFFFF;" parent="1" vertex="1">
          <mxGeometry x="716.25" y="408.25" width="40" height="40" as="geometry" />
        </mxCell>
        <mxCell id="1kCUsfdJUAUuM6tlL-a6-138" value="Nombre" style="text;html=1;align=center;verticalAlign=middle;resizable=0;points=[];autosize=1;strokeColor=none;fillColor=none;" parent="1" vertex="1">
          <mxGeometry x="790" y="391.25" width="70" height="30" as="geometry" />
        </mxCell>
        <mxCell id="1kCUsfdJUAUuM6tlL-a6-139" value="Nombre&lt;br&gt;completo" style="text;html=1;align=center;verticalAlign=middle;resizable=0;points=[];autosize=1;strokeColor=none;fillColor=none;" parent="1" vertex="1">
          <mxGeometry x="701.25" y="456.25" width="70" height="40" as="geometry" />
        </mxCell>
        <mxCell id="1kCUsfdJUAUuM6tlL-a6-140" value="Apellidos" style="text;html=1;align=center;verticalAlign=middle;resizable=0;points=[];autosize=1;strokeColor=none;fillColor=none;" parent="1" vertex="1">
          <mxGeometry x="908.75" y="412.75" width="70" height="30" as="geometry" />
        </mxCell>
        <mxCell id="1kCUsfdJUAUuM6tlL-a6-141" value="" style="ellipse;whiteSpace=wrap;html=1;aspect=fixed;fillColor=#FFFFFF;" parent="1" vertex="1">
          <mxGeometry x="878.75" y="311.25" width="40" height="40" as="geometry" />
        </mxCell>
        <mxCell id="1kCUsfdJUAUuM6tlL-a6-142" value="" style="endArrow=none;html=1;rounded=0;" parent="1" source="1kCUsfdJUAUuM6tlL-a6-141" target="1kCUsfdJUAUuM6tlL-a6-135" edge="1">
          <mxGeometry width="50" height="50" relative="1" as="geometry">
            <mxPoint x="518.75" y="464.25" as="sourcePoint" />
            <mxPoint x="538.75" y="406.25" as="targetPoint" />
          </mxGeometry>
        </mxCell>
        <mxCell id="1kCUsfdJUAUuM6tlL-a6-143" value="" style="ellipse;whiteSpace=wrap;html=1;aspect=fixed;fillColor=#FFFFFF;" parent="1" vertex="1">
          <mxGeometry x="958.75" y="311.25" width="40" height="40" as="geometry" />
        </mxCell>
        <mxCell id="1kCUsfdJUAUuM6tlL-a6-144" value="" style="endArrow=none;html=1;rounded=0;" parent="1" source="1kCUsfdJUAUuM6tlL-a6-143" target="1kCUsfdJUAUuM6tlL-a6-135" edge="1">
          <mxGeometry width="50" height="50" relative="1" as="geometry">
            <mxPoint x="528.75" y="474.25" as="sourcePoint" />
            <mxPoint x="558.75" y="406.25" as="targetPoint" />
          </mxGeometry>
        </mxCell>
        <mxCell id="1kCUsfdJUAUuM6tlL-a6-145" value="Apellido 1" style="text;html=1;align=center;verticalAlign=middle;resizable=0;points=[];autosize=1;strokeColor=none;fillColor=none;" parent="1" vertex="1">
          <mxGeometry x="858.75" y="278.25" width="80" height="30" as="geometry" />
        </mxCell>
        <mxCell id="1kCUsfdJUAUuM6tlL-a6-146" value="Apellido 2" style="text;html=1;align=center;verticalAlign=middle;resizable=0;points=[];autosize=1;strokeColor=none;fillColor=none;" parent="1" vertex="1">
          <mxGeometry x="938.75" y="278.25" width="80" height="30" as="geometry" />
        </mxCell>
        <mxCell id="1kCUsfdJUAUuM6tlL-a6-147" value="" style="ellipse;whiteSpace=wrap;html=1;aspect=fixed;fillColor=#FFFFFF;" parent="1" vertex="1">
          <mxGeometry x="805" y="353.25" width="40" height="40" as="geometry" />
        </mxCell>
        <mxCell id="1kCUsfdJUAUuM6tlL-a6-148" value="" style="endArrow=none;html=1;rounded=0;" parent="1" source="1kCUsfdJUAUuM6tlL-a6-137" target="1kCUsfdJUAUuM6tlL-a6-135" edge="1">
          <mxGeometry width="50" height="50" relative="1" as="geometry">
            <mxPoint x="440.75" y="507.25" as="sourcePoint" />
            <mxPoint x="396.75" y="527.25" as="targetPoint" />
          </mxGeometry>
        </mxCell>
        <mxCell id="1kCUsfdJUAUuM6tlL-a6-149" value="" style="endArrow=none;html=1;rounded=0;" parent="1" source="1kCUsfdJUAUuM6tlL-a6-137" target="1kCUsfdJUAUuM6tlL-a6-70" edge="1">
          <mxGeometry width="50" height="50" relative="1" as="geometry">
            <mxPoint x="459.75" y="436.25" as="sourcePoint" />
            <mxPoint x="523.75" y="437.25" as="targetPoint" />
          </mxGeometry>
        </mxCell>
        <mxCell id="1kCUsfdJUAUuM6tlL-a6-150" value="" style="ellipse;whiteSpace=wrap;html=1;aspect=fixed;fillColor=#FFFFFF;" parent="1" vertex="1">
          <mxGeometry x="598.75" y="300.75" width="40" height="40" as="geometry" />
        </mxCell>
        <mxCell id="1kCUsfdJUAUuM6tlL-a6-151" value="Fecha de&lt;br&gt;nacimiento" style="text;html=1;align=center;verticalAlign=middle;resizable=0;points=[];autosize=1;strokeColor=none;fillColor=none;" parent="1" vertex="1">
          <mxGeometry x="583.75" y="257.75" width="80" height="40" as="geometry" />
        </mxCell>
        <mxCell id="1kCUsfdJUAUuM6tlL-a6-152" value="" style="endArrow=none;html=1;rounded=0;" parent="1" source="1kCUsfdJUAUuM6tlL-a6-150" target="1kCUsfdJUAUuM6tlL-a6-70" edge="1">
          <mxGeometry width="50" height="50" relative="1" as="geometry">
            <mxPoint x="613.75" y="332.25" as="sourcePoint" />
            <mxPoint x="591.75" y="408.25" as="targetPoint" />
          </mxGeometry>
        </mxCell>
        <mxCell id="1kCUsfdJUAUuM6tlL-a6-153" value="" style="ellipse;whiteSpace=wrap;html=1;aspect=fixed;fillColor=#FFFFFF;dashed=1;" parent="1" vertex="1">
          <mxGeometry x="658.75" y="333.25" width="40" height="40" as="geometry" />
        </mxCell>
        <mxCell id="1kCUsfdJUAUuM6tlL-a6-154" value="Fecha/hora de registro" style="text;html=1;align=center;verticalAlign=middle;resizable=0;points=[];autosize=1;strokeColor=none;fillColor=none;" parent="1" vertex="1">
          <mxGeometry x="683.75" y="308.25" width="140" height="30" as="geometry" />
        </mxCell>
        <mxCell id="1kCUsfdJUAUuM6tlL-a6-155" value="" style="endArrow=none;html=1;rounded=0;" parent="1" source="1kCUsfdJUAUuM6tlL-a6-153" target="1kCUsfdJUAUuM6tlL-a6-70" edge="1">
          <mxGeometry width="50" height="50" relative="1" as="geometry">
            <mxPoint x="666.75" y="330.25" as="sourcePoint" />
            <mxPoint x="606.75" y="408.25" as="targetPoint" />
          </mxGeometry>
        </mxCell>
        <mxCell id="1kCUsfdJUAUuM6tlL-a6-156" value="" style="triangle;whiteSpace=wrap;html=1;rotation=90;fillColor=#fff2cc;strokeColor=#d6b656;" parent="1" vertex="1">
          <mxGeometry x="543.75" y="518.25" width="60" height="80" as="geometry" />
        </mxCell>
        <mxCell id="1kCUsfdJUAUuM6tlL-a6-157" value="" style="endArrow=none;html=1;rounded=0;" parent="1" source="1kCUsfdJUAUuM6tlL-a6-70" target="1kCUsfdJUAUuM6tlL-a6-158" edge="1">
          <mxGeometry width="50" height="50" relative="1" as="geometry">
            <mxPoint x="613.75" y="332.25" as="sourcePoint" />
            <mxPoint x="591.75" y="408.25" as="targetPoint" />
          </mxGeometry>
        </mxCell>
        <mxCell id="1kCUsfdJUAUuM6tlL-a6-158" value="" style="ellipse;whiteSpace=wrap;html=1;fillColor=#fff2cc;strokeColor=#d6b656;" parent="1" vertex="1">
          <mxGeometry x="563.75" y="511.25" width="20" height="10" as="geometry" />
        </mxCell>
        <mxCell id="1kCUsfdJUAUuM6tlL-a6-159" value="ADULTO" style="rounded=0;whiteSpace=wrap;html=1;fillColor=#f5f5f5;fontColor=#333333;strokeColor=#666666;" parent="1" vertex="1">
          <mxGeometry x="423.75" y="614.25" width="120" height="60" as="geometry" />
        </mxCell>
        <mxCell id="GTJ9kHywWiIw0Ljh5JeB-28" style="edgeStyle=orthogonalEdgeStyle;rounded=0;orthogonalLoop=1;jettySize=auto;html=1;entryX=0.5;entryY=0;entryDx=0;entryDy=0;" parent="1" source="1kCUsfdJUAUuM6tlL-a6-160" target="GTJ9kHywWiIw0Ljh5JeB-26" edge="1">
          <mxGeometry relative="1" as="geometry" />
        </mxCell>
        <mxCell id="GTJ9kHywWiIw0Ljh5JeB-29" value="(1, 1)" style="edgeLabel;html=1;align=center;verticalAlign=middle;resizable=0;points=[];" parent="GTJ9kHywWiIw0Ljh5JeB-28" connectable="0" vertex="1">
          <mxGeometry x="-0.3468" y="-1" relative="1" as="geometry">
            <mxPoint x="-28" y="8" as="offset" />
          </mxGeometry>
        </mxCell>
        <mxCell id="GTJ9kHywWiIw0Ljh5JeB-31" value="Pertenece a" style="edgeLabel;html=1;align=center;verticalAlign=middle;resizable=0;points=[];" parent="GTJ9kHywWiIw0Ljh5JeB-28" connectable="0" vertex="1">
          <mxGeometry x="-0.1317" y="2" relative="1" as="geometry">
            <mxPoint x="39" as="offset" />
          </mxGeometry>
        </mxCell>
        <mxCell id="1kCUsfdJUAUuM6tlL-a6-160" value="MENOR" style="rounded=0;whiteSpace=wrap;html=1;fillColor=#f5f5f5;fontColor=#333333;strokeColor=#666666;" parent="1" vertex="1">
          <mxGeometry x="608.75" y="614.25" width="120" height="60" as="geometry" />
        </mxCell>
        <mxCell id="1kCUsfdJUAUuM6tlL-a6-161" value="" style="endArrow=none;html=1;rounded=0;" parent="1" source="1kCUsfdJUAUuM6tlL-a6-156" target="1kCUsfdJUAUuM6tlL-a6-159" edge="1">
          <mxGeometry width="50" height="50" relative="1" as="geometry">
            <mxPoint x="583.75" y="468.25" as="sourcePoint" />
            <mxPoint x="583.75" y="521.25" as="targetPoint" />
          </mxGeometry>
        </mxCell>
        <mxCell id="1kCUsfdJUAUuM6tlL-a6-162" value="" style="endArrow=none;html=1;rounded=0;exitX=0.729;exitY=0.347;exitDx=0;exitDy=0;exitPerimeter=0;" parent="1" source="1kCUsfdJUAUuM6tlL-a6-156" target="1kCUsfdJUAUuM6tlL-a6-160" edge="1">
          <mxGeometry width="50" height="50" relative="1" as="geometry">
            <mxPoint x="583.75" y="468.25" as="sourcePoint" />
            <mxPoint x="583.75" y="521.25" as="targetPoint" />
          </mxGeometry>
        </mxCell>
        <mxCell id="1kCUsfdJUAUuM6tlL-a6-163" value="" style="ellipse;whiteSpace=wrap;html=1;aspect=fixed;fillColor=#FFFFFF;" parent="1" vertex="1">
          <mxGeometry x="633.75" y="496.25" width="40" height="40" as="geometry" />
        </mxCell>
        <mxCell id="1kCUsfdJUAUuM6tlL-a6-164" value="Tipo" style="text;html=1;align=center;verticalAlign=middle;resizable=0;points=[];autosize=1;strokeColor=none;fillColor=none;" parent="1" vertex="1">
          <mxGeometry x="628.75" y="468.25" width="50" height="30" as="geometry" />
        </mxCell>
        <mxCell id="1kCUsfdJUAUuM6tlL-a6-166" value="" style="endArrow=none;html=1;rounded=0;" parent="1" source="1kCUsfdJUAUuM6tlL-a6-158" target="1kCUsfdJUAUuM6tlL-a6-163" edge="1">
          <mxGeometry width="50" height="50" relative="1" as="geometry">
            <mxPoint x="618.75" y="493.25" as="sourcePoint" />
            <mxPoint x="878.75" y="438.25" as="targetPoint" />
          </mxGeometry>
        </mxCell>
        <mxCell id="1kCUsfdJUAUuM6tlL-a6-167" value="" style="ellipse;whiteSpace=wrap;html=1;aspect=fixed;fillColor=#FFFFFF;" parent="1" vertex="1">
          <mxGeometry x="333.75" y="561.25" width="40" height="40" as="geometry" />
        </mxCell>
        <mxCell id="1kCUsfdJUAUuM6tlL-a6-168" value="DNI" style="text;html=1;align=center;verticalAlign=middle;resizable=0;points=[];autosize=1;strokeColor=none;fillColor=none;" parent="1" vertex="1">
          <mxGeometry x="288.75" y="568.25" width="40" height="30" as="geometry" />
        </mxCell>
        <mxCell id="1kCUsfdJUAUuM6tlL-a6-169" value="" style="endArrow=none;html=1;rounded=0;" parent="1" source="1kCUsfdJUAUuM6tlL-a6-167" target="1kCUsfdJUAUuM6tlL-a6-159" edge="1">
          <mxGeometry width="50" height="50" relative="1" as="geometry">
            <mxPoint x="459.75" y="436.25" as="sourcePoint" />
            <mxPoint x="523.75" y="437.25" as="targetPoint" />
          </mxGeometry>
        </mxCell>
        <mxCell id="1kCUsfdJUAUuM6tlL-a6-170" value="" style="ellipse;whiteSpace=wrap;html=1;aspect=fixed;fillColor=#FFFFFF;" parent="1" vertex="1">
          <mxGeometry x="331.25" y="624.25" width="40" height="40" as="geometry" />
        </mxCell>
        <mxCell id="1kCUsfdJUAUuM6tlL-a6-171" value="Estudiante?" style="text;html=1;align=center;verticalAlign=middle;resizable=0;points=[];autosize=1;strokeColor=none;fillColor=none;" parent="1" vertex="1">
          <mxGeometry x="248.75" y="629.25" width="90" height="30" as="geometry" />
        </mxCell>
        <mxCell id="1kCUsfdJUAUuM6tlL-a6-172" value="" style="endArrow=none;html=1;rounded=0;" parent="1" source="1kCUsfdJUAUuM6tlL-a6-170" target="1kCUsfdJUAUuM6tlL-a6-159" edge="1">
          <mxGeometry width="50" height="50" relative="1" as="geometry">
            <mxPoint x="381.75" y="600.25" as="sourcePoint" />
            <mxPoint x="433.75" y="625.25" as="targetPoint" />
          </mxGeometry>
        </mxCell>
        <mxCell id="1kCUsfdJUAUuM6tlL-a6-173" value="" style="ellipse;whiteSpace=wrap;html=1;aspect=fixed;fillColor=#FFFFFF;" parent="1" vertex="1">
          <mxGeometry x="668.75" y="554.5" width="40" height="40" as="geometry" />
        </mxCell>
        <mxCell id="1kCUsfdJUAUuM6tlL-a6-174" value="DNI padre/madre/tutor" style="text;html=1;align=center;verticalAlign=middle;resizable=0;points=[];autosize=1;strokeColor=none;fillColor=none;" parent="1" vertex="1">
          <mxGeometry x="705" y="559.5" width="140" height="30" as="geometry" />
        </mxCell>
        <mxCell id="1kCUsfdJUAUuM6tlL-a6-175" value="" style="endArrow=none;html=1;rounded=0;" parent="1" source="1kCUsfdJUAUuM6tlL-a6-173" target="1kCUsfdJUAUuM6tlL-a6-160" edge="1">
          <mxGeometry width="50" height="50" relative="1" as="geometry">
            <mxPoint x="595.75" y="579.25" as="sourcePoint" />
            <mxPoint x="645.75" y="624.25" as="targetPoint" />
          </mxGeometry>
        </mxCell>
        <mxCell id="1kCUsfdJUAUuM6tlL-a6-176" value="" style="ellipse;whiteSpace=wrap;html=1;aspect=fixed;fillColor=#FFFFFF;" parent="1" vertex="1">
          <mxGeometry x="672.5" y="558" width="32.5" height="32.5" as="geometry" />
        </mxCell>
        <mxCell id="KqJ0mgOLyfm1o9Krcu3l-9" style="edgeStyle=orthogonalEdgeStyle;rounded=0;orthogonalLoop=1;jettySize=auto;html=1;entryX=0.5;entryY=0;entryDx=0;entryDy=0;endArrow=none;endFill=0;" parent="1" source="1kCUsfdJUAUuM6tlL-a6-177" target="i4JJ-DvGvFb-LeGQvSu3-59" edge="1">
          <mxGeometry relative="1" as="geometry" />
        </mxCell>
        <mxCell id="KqJ0mgOLyfm1o9Krcu3l-10" value="Es creada" style="edgeLabel;html=1;align=center;verticalAlign=middle;resizable=0;points=[];" parent="KqJ0mgOLyfm1o9Krcu3l-9" connectable="0" vertex="1">
          <mxGeometry x="0.0838" y="3" relative="1" as="geometry">
            <mxPoint x="-43" y="6" as="offset" />
          </mxGeometry>
        </mxCell>
        <mxCell id="KqJ0mgOLyfm1o9Krcu3l-11" value="(1, 1)" style="edgeLabel;html=1;align=center;verticalAlign=middle;resizable=0;points=[];" parent="KqJ0mgOLyfm1o9Krcu3l-9" connectable="0" vertex="1">
          <mxGeometry x="0.1049" y="-1" relative="1" as="geometry">
            <mxPoint x="21" as="offset" />
          </mxGeometry>
        </mxCell>
        <mxCell id="1kCUsfdJUAUuM6tlL-a6-177" value="&lt;font style=&quot;font-size: 15px;&quot;&gt;ARTICULO&lt;/font&gt;" style="rounded=0;whiteSpace=wrap;html=1;fillColor=#f5f5f5;fontColor=#333333;strokeColor=#666666;" parent="1" vertex="1">
          <mxGeometry x="2470" y="-27.499999999999993" width="120" height="60" as="geometry" />
        </mxCell>
        <mxCell id="1kCUsfdJUAUuM6tlL-a6-178" value="" style="ellipse;whiteSpace=wrap;html=1;aspect=fixed;fillColor=#000000;" parent="1" vertex="1">
          <mxGeometry x="2395" y="-63.75" width="40" height="40" as="geometry" />
        </mxCell>
        <mxCell id="1kCUsfdJUAUuM6tlL-a6-179" value="" style="endArrow=none;html=1;rounded=0;" parent="1" source="1kCUsfdJUAUuM6tlL-a6-178" target="1kCUsfdJUAUuM6tlL-a6-177" edge="1">
          <mxGeometry width="50" height="50" relative="1" as="geometry">
            <mxPoint x="2490" y="133.75" as="sourcePoint" />
            <mxPoint x="2540" y="83.75" as="targetPoint" />
          </mxGeometry>
        </mxCell>
        <mxCell id="1kCUsfdJUAUuM6tlL-a6-180" value="ID" style="text;html=1;strokeColor=none;fillColor=none;align=center;verticalAlign=middle;whiteSpace=wrap;rounded=0;" parent="1" vertex="1">
          <mxGeometry x="2360" y="-56.25" width="30" height="30" as="geometry" />
        </mxCell>
        <mxCell id="1kCUsfdJUAUuM6tlL-a6-184" value="" style="triangle;whiteSpace=wrap;html=1;rotation=90;fillColor=#fff2cc;strokeColor=#d6b656;" parent="1" vertex="1">
          <mxGeometry x="2500" y="98.75" width="60" height="80" as="geometry" />
        </mxCell>
        <mxCell id="1kCUsfdJUAUuM6tlL-a6-185" value="" style="endArrow=none;html=1;rounded=0;" parent="1" source="1kCUsfdJUAUuM6tlL-a6-177" target="1kCUsfdJUAUuM6tlL-a6-186" edge="1">
          <mxGeometry width="50" height="50" relative="1" as="geometry">
            <mxPoint x="2530" y="88.75" as="sourcePoint" />
            <mxPoint x="2548" y="38.749999999999986" as="targetPoint" />
          </mxGeometry>
        </mxCell>
        <mxCell id="1kCUsfdJUAUuM6tlL-a6-186" value="" style="ellipse;whiteSpace=wrap;html=1;fillColor=#fff2cc;strokeColor=#d6b656;" parent="1" vertex="1">
          <mxGeometry x="2520" y="91.75" width="20" height="10" as="geometry" />
        </mxCell>
        <mxCell id="1kCUsfdJUAUuM6tlL-a6-187" value="" style="ellipse;whiteSpace=wrap;html=1;aspect=fixed;fillColor=#FFFFFF;" parent="1" vertex="1">
          <mxGeometry x="2590" y="76.75" width="40" height="40" as="geometry" />
        </mxCell>
        <mxCell id="1kCUsfdJUAUuM6tlL-a6-188" value="Tipo" style="text;html=1;align=center;verticalAlign=middle;resizable=0;points=[];autosize=1;strokeColor=none;fillColor=none;" parent="1" vertex="1">
          <mxGeometry x="2585" y="48.749999999999986" width="50" height="30" as="geometry" />
        </mxCell>
        <mxCell id="1kCUsfdJUAUuM6tlL-a6-189" value="" style="endArrow=none;html=1;rounded=0;" parent="1" source="1kCUsfdJUAUuM6tlL-a6-186" target="1kCUsfdJUAUuM6tlL-a6-187" edge="1">
          <mxGeometry width="50" height="50" relative="1" as="geometry">
            <mxPoint x="2575" y="73.75" as="sourcePoint" />
            <mxPoint x="2835" y="18.749999999999986" as="targetPoint" />
          </mxGeometry>
        </mxCell>
        <mxCell id="1kCUsfdJUAUuM6tlL-a6-190" value="&lt;span style=&quot;font-size: 15px;&quot;&gt;MATERIAL&lt;br&gt;LECTURA&lt;br&gt;&lt;/span&gt;" style="rounded=0;whiteSpace=wrap;html=1;fillColor=#f5f5f5;fontColor=#333333;strokeColor=#666666;" parent="1" vertex="1">
          <mxGeometry x="2310" y="226.25" width="120" height="60" as="geometry" />
        </mxCell>
        <mxCell id="1kCUsfdJUAUuM6tlL-a6-191" value="&lt;font style=&quot;font-size: 15px;&quot;&gt;MATERIAL&lt;br&gt;AUDIOVISUAL&lt;br&gt;&lt;/font&gt;" style="rounded=0;whiteSpace=wrap;html=1;fillColor=#f5f5f5;fontColor=#333333;strokeColor=#666666;" parent="1" vertex="1">
          <mxGeometry x="2640" y="226" width="120" height="60" as="geometry" />
        </mxCell>
        <mxCell id="1kCUsfdJUAUuM6tlL-a6-193" value="" style="endArrow=none;html=1;rounded=0;" parent="1" source="1kCUsfdJUAUuM6tlL-a6-190" target="1kCUsfdJUAUuM6tlL-a6-184" edge="1">
          <mxGeometry width="50" height="50" relative="1" as="geometry">
            <mxPoint x="2340" y="273.75" as="sourcePoint" />
            <mxPoint x="2390" y="223.75" as="targetPoint" />
          </mxGeometry>
        </mxCell>
        <mxCell id="1kCUsfdJUAUuM6tlL-a6-194" value="" style="endArrow=none;html=1;rounded=0;" parent="1" source="1kCUsfdJUAUuM6tlL-a6-191" target="1kCUsfdJUAUuM6tlL-a6-184" edge="1">
          <mxGeometry width="50" height="50" relative="1" as="geometry">
            <mxPoint x="2458" y="213.75" as="sourcePoint" />
            <mxPoint x="2527" y="158.75" as="targetPoint" />
          </mxGeometry>
        </mxCell>
        <mxCell id="1kCUsfdJUAUuM6tlL-a6-195" value="&lt;span style=&quot;font-size: 15px;&quot;&gt;DIRECCIÓN&lt;/span&gt;" style="rounded=0;whiteSpace=wrap;html=1;fillColor=#f5f5f5;fontColor=#333333;strokeColor=#666666;" parent="1" vertex="1">
          <mxGeometry x="1040" y="49.99999999999994" width="120" height="60" as="geometry" />
        </mxCell>
        <mxCell id="1kCUsfdJUAUuM6tlL-a6-196" value="&lt;span style=&quot;font-size: 15px;&quot;&gt;PROVINCIA&lt;/span&gt;" style="rounded=0;whiteSpace=wrap;html=1;fillColor=#f5f5f5;fontColor=#333333;strokeColor=#666666;" parent="1" vertex="1">
          <mxGeometry x="128.75" y="43.74999999999994" width="120" height="60" as="geometry" />
        </mxCell>
        <mxCell id="1kCUsfdJUAUuM6tlL-a6-197" value="&lt;span style=&quot;font-size: 15px;&quot;&gt;ISLA&lt;/span&gt;" style="rounded=0;whiteSpace=wrap;html=1;fillColor=#f5f5f5;fontColor=#333333;strokeColor=#666666;" parent="1" vertex="1">
          <mxGeometry x="585" y="49.99999999999994" width="120" height="60" as="geometry" />
        </mxCell>
        <mxCell id="1kCUsfdJUAUuM6tlL-a6-198" value="" style="ellipse;whiteSpace=wrap;html=1;aspect=fixed;fillColor=#000000;" parent="1" vertex="1">
          <mxGeometry x="120" y="-36.25000000000006" width="40" height="40" as="geometry" />
        </mxCell>
        <mxCell id="1kCUsfdJUAUuM6tlL-a6-199" value="ID" style="text;html=1;strokeColor=none;fillColor=none;align=center;verticalAlign=middle;whiteSpace=wrap;rounded=0;" parent="1" vertex="1">
          <mxGeometry x="125" y="-66.25000000000006" width="30" height="30" as="geometry" />
        </mxCell>
        <mxCell id="1kCUsfdJUAUuM6tlL-a6-200" value="" style="ellipse;whiteSpace=wrap;html=1;aspect=fixed;fillColor=#FFFFFF;" parent="1" vertex="1">
          <mxGeometry x="220" y="-36.25000000000006" width="40" height="40" as="geometry" />
        </mxCell>
        <mxCell id="1kCUsfdJUAUuM6tlL-a6-201" value="Nombre" style="text;html=1;strokeColor=none;fillColor=none;align=center;verticalAlign=middle;whiteSpace=wrap;rounded=0;" parent="1" vertex="1">
          <mxGeometry x="225" y="-66.25000000000006" width="30" height="30" as="geometry" />
        </mxCell>
        <mxCell id="1kCUsfdJUAUuM6tlL-a6-202" value="" style="endArrow=none;html=1;rounded=0;" parent="1" source="1kCUsfdJUAUuM6tlL-a6-200" target="1kCUsfdJUAUuM6tlL-a6-196" edge="1">
          <mxGeometry width="50" height="50" relative="1" as="geometry">
            <mxPoint x="418.75" y="138.75" as="sourcePoint" />
            <mxPoint x="285.75" y="47.75" as="targetPoint" />
          </mxGeometry>
        </mxCell>
        <mxCell id="1kCUsfdJUAUuM6tlL-a6-203" value="" style="endArrow=none;html=1;rounded=0;" parent="1" source="1kCUsfdJUAUuM6tlL-a6-196" target="1kCUsfdJUAUuM6tlL-a6-198" edge="1">
          <mxGeometry width="50" height="50" relative="1" as="geometry">
            <mxPoint x="428.75" y="148.75" as="sourcePoint" />
            <mxPoint x="295.75" y="57.75" as="targetPoint" />
          </mxGeometry>
        </mxCell>
        <mxCell id="1kCUsfdJUAUuM6tlL-a6-204" value="" style="ellipse;whiteSpace=wrap;html=1;aspect=fixed;fillColor=#000000;" parent="1" vertex="1">
          <mxGeometry x="553.75" y="-11.25000000000006" width="40" height="40" as="geometry" />
        </mxCell>
        <mxCell id="1kCUsfdJUAUuM6tlL-a6-205" value="ID" style="text;html=1;strokeColor=none;fillColor=none;align=center;verticalAlign=middle;whiteSpace=wrap;rounded=0;" parent="1" vertex="1">
          <mxGeometry x="558.75" y="-40.00000000000006" width="30" height="30" as="geometry" />
        </mxCell>
        <mxCell id="1kCUsfdJUAUuM6tlL-a6-206" value="" style="ellipse;whiteSpace=wrap;html=1;aspect=fixed;fillColor=#FFFFFF;" parent="1" vertex="1">
          <mxGeometry x="623.75" y="-12.500000000000059" width="40" height="40" as="geometry" />
        </mxCell>
        <mxCell id="1kCUsfdJUAUuM6tlL-a6-207" value="Nombre" style="text;html=1;strokeColor=none;fillColor=none;align=center;verticalAlign=middle;whiteSpace=wrap;rounded=0;" parent="1" vertex="1">
          <mxGeometry x="630" y="-40.00000000000006" width="30" height="30" as="geometry" />
        </mxCell>
        <mxCell id="1kCUsfdJUAUuM6tlL-a6-208" value="" style="endArrow=none;html=1;rounded=0;" parent="1" source="1kCUsfdJUAUuM6tlL-a6-197" target="1kCUsfdJUAUuM6tlL-a6-204" edge="1">
          <mxGeometry width="50" height="50" relative="1" as="geometry">
            <mxPoint x="1062" y="116" as="sourcePoint" />
            <mxPoint x="958" y="59" as="targetPoint" />
          </mxGeometry>
        </mxCell>
        <mxCell id="1kCUsfdJUAUuM6tlL-a6-209" value="" style="endArrow=none;html=1;rounded=0;" parent="1" source="1kCUsfdJUAUuM6tlL-a6-197" target="1kCUsfdJUAUuM6tlL-a6-206" edge="1">
          <mxGeometry width="50" height="50" relative="1" as="geometry">
            <mxPoint x="672" y="60" as="sourcePoint" />
            <mxPoint x="700" y="8" as="targetPoint" />
          </mxGeometry>
        </mxCell>
        <mxCell id="1kCUsfdJUAUuM6tlL-a6-210" value="Tiene" style="rhombus;whiteSpace=wrap;html=1;fillColor=#fff2cc;strokeColor=#d6b656;" parent="1" vertex="1">
          <mxGeometry x="343.75" y="38.75" width="120" height="75" as="geometry" />
        </mxCell>
        <mxCell id="1kCUsfdJUAUuM6tlL-a6-211" value="" style="endArrow=none;html=1;rounded=0;" parent="1" source="1kCUsfdJUAUuM6tlL-a6-196" target="1kCUsfdJUAUuM6tlL-a6-210" edge="1">
          <mxGeometry width="50" height="50" relative="1" as="geometry">
            <mxPoint x="480" y="190" as="sourcePoint" />
            <mxPoint x="530" y="140" as="targetPoint" />
          </mxGeometry>
        </mxCell>
        <mxCell id="1kCUsfdJUAUuM6tlL-a6-213" value="Tiene" style="edgeLabel;html=1;align=center;verticalAlign=middle;resizable=0;points=[];" parent="1kCUsfdJUAUuM6tlL-a6-211" vertex="1" connectable="0">
          <mxGeometry x="-0.1794" y="1" relative="1" as="geometry">
            <mxPoint x="12" y="-12" as="offset" />
          </mxGeometry>
        </mxCell>
        <mxCell id="1kCUsfdJUAUuM6tlL-a6-215" value="(1, 1)" style="edgeLabel;html=1;align=center;verticalAlign=middle;resizable=0;points=[];" parent="1kCUsfdJUAUuM6tlL-a6-211" vertex="1" connectable="0">
          <mxGeometry x="0.0225" y="-1" relative="1" as="geometry">
            <mxPoint y="13" as="offset" />
          </mxGeometry>
        </mxCell>
        <mxCell id="1kCUsfdJUAUuM6tlL-a6-212" value="" style="endArrow=none;html=1;rounded=0;" parent="1" source="1kCUsfdJUAUuM6tlL-a6-210" target="1kCUsfdJUAUuM6tlL-a6-197" edge="1">
          <mxGeometry width="50" height="50" relative="1" as="geometry">
            <mxPoint x="199" y="89" as="sourcePoint" />
            <mxPoint x="355" y="87" as="targetPoint" />
          </mxGeometry>
        </mxCell>
        <mxCell id="1kCUsfdJUAUuM6tlL-a6-214" value="Tiene" style="edgeLabel;html=1;align=center;verticalAlign=middle;resizable=0;points=[];" parent="1kCUsfdJUAUuM6tlL-a6-212" vertex="1" connectable="0">
          <mxGeometry x="-0.0552" y="3" relative="1" as="geometry">
            <mxPoint y="-10" as="offset" />
          </mxGeometry>
        </mxCell>
        <mxCell id="1kCUsfdJUAUuM6tlL-a6-216" value="(0, n)" style="edgeLabel;html=1;align=center;verticalAlign=middle;resizable=0;points=[];" parent="1kCUsfdJUAUuM6tlL-a6-212" vertex="1" connectable="0">
          <mxGeometry x="-0.0667" y="-1" relative="1" as="geometry">
            <mxPoint y="11" as="offset" />
          </mxGeometry>
        </mxCell>
        <mxCell id="1kCUsfdJUAUuM6tlL-a6-218" value="Tiene" style="rhombus;whiteSpace=wrap;html=1;fillColor=#fff2cc;strokeColor=#d6b656;" parent="1" vertex="1">
          <mxGeometry x="810" y="42.5" width="120" height="75" as="geometry" />
        </mxCell>
        <mxCell id="1kCUsfdJUAUuM6tlL-a6-220" value="" style="endArrow=none;html=1;rounded=0;entryX=0;entryY=0.5;entryDx=0;entryDy=0;" parent="1" source="1kCUsfdJUAUuM6tlL-a6-197" target="1kCUsfdJUAUuM6tlL-a6-218" edge="1">
          <mxGeometry width="50" height="50" relative="1" as="geometry">
            <mxPoint x="730" y="120" as="sourcePoint" />
            <mxPoint x="780" y="70" as="targetPoint" />
          </mxGeometry>
        </mxCell>
        <mxCell id="1kCUsfdJUAUuM6tlL-a6-222" value="Tiene" style="edgeLabel;html=1;align=center;verticalAlign=middle;resizable=0;points=[];" parent="1kCUsfdJUAUuM6tlL-a6-220" vertex="1" connectable="0">
          <mxGeometry x="-0.204" y="-1" relative="1" as="geometry">
            <mxPoint x="8" y="-13" as="offset" />
          </mxGeometry>
        </mxCell>
        <mxCell id="1kCUsfdJUAUuM6tlL-a6-223" value="(1, 1)" style="edgeLabel;html=1;align=center;verticalAlign=middle;resizable=0;points=[];" parent="1kCUsfdJUAUuM6tlL-a6-220" vertex="1" connectable="0">
          <mxGeometry x="0.1068" y="-1" relative="1" as="geometry">
            <mxPoint x="-3" y="9" as="offset" />
          </mxGeometry>
        </mxCell>
        <mxCell id="1kCUsfdJUAUuM6tlL-a6-221" value="" style="endArrow=none;html=1;rounded=0;exitX=1;exitY=0.5;exitDx=0;exitDy=0;" parent="1" source="1kCUsfdJUAUuM6tlL-a6-218" target="1kCUsfdJUAUuM6tlL-a6-195" edge="1">
          <mxGeometry width="50" height="50" relative="1" as="geometry">
            <mxPoint x="740" y="130" as="sourcePoint" />
            <mxPoint x="790" y="80" as="targetPoint" />
          </mxGeometry>
        </mxCell>
        <mxCell id="1kCUsfdJUAUuM6tlL-a6-224" value="Tiene" style="edgeLabel;html=1;align=center;verticalAlign=middle;resizable=0;points=[];" parent="1kCUsfdJUAUuM6tlL-a6-221" vertex="1" connectable="0">
          <mxGeometry x="-0.0393" y="-2" relative="1" as="geometry">
            <mxPoint y="-14" as="offset" />
          </mxGeometry>
        </mxCell>
        <mxCell id="1kCUsfdJUAUuM6tlL-a6-225" value="(0, n)" style="edgeLabel;html=1;align=center;verticalAlign=middle;resizable=0;points=[];" parent="1kCUsfdJUAUuM6tlL-a6-221" vertex="1" connectable="0">
          <mxGeometry x="-0.0393" y="-2" relative="1" as="geometry">
            <mxPoint y="8" as="offset" />
          </mxGeometry>
        </mxCell>
        <mxCell id="1kCUsfdJUAUuM6tlL-a6-231" value="" style="ellipse;whiteSpace=wrap;html=1;aspect=fixed;fillColor=#000000;" parent="1" vertex="1">
          <mxGeometry x="947.25" y="-7.500000000000057" width="40" height="40" as="geometry" />
        </mxCell>
        <mxCell id="1kCUsfdJUAUuM6tlL-a6-232" value="ID" style="text;html=1;strokeColor=none;fillColor=none;align=center;verticalAlign=middle;whiteSpace=wrap;rounded=0;" parent="1" vertex="1">
          <mxGeometry x="952.25" y="-36.25000000000006" width="30" height="30" as="geometry" />
        </mxCell>
        <mxCell id="1kCUsfdJUAUuM6tlL-a6-233" value="" style="endArrow=none;html=1;rounded=0;" parent="1" source="1kCUsfdJUAUuM6tlL-a6-195" target="1kCUsfdJUAUuM6tlL-a6-231" edge="1">
          <mxGeometry width="50" height="50" relative="1" as="geometry">
            <mxPoint x="1030" y="20" as="sourcePoint" />
            <mxPoint x="1126" y="3" as="targetPoint" />
          </mxGeometry>
        </mxCell>
        <mxCell id="1kCUsfdJUAUuM6tlL-a6-249" value="Tiene" style="rhombus;whiteSpace=wrap;html=1;fillColor=#fff2cc;strokeColor=#d6b656;" parent="1" vertex="1">
          <mxGeometry x="887.25" y="166.25" width="120" height="75" as="geometry" />
        </mxCell>
        <mxCell id="1kCUsfdJUAUuM6tlL-a6-250" value="" style="endArrow=classic;html=1;rounded=0;entryX=0.25;entryY=1;entryDx=0;entryDy=0;exitX=1;exitY=0.5;exitDx=0;exitDy=0;startArrow=none;startFill=0;endFill=1;" parent="1" source="1kCUsfdJUAUuM6tlL-a6-249" target="1kCUsfdJUAUuM6tlL-a6-195" edge="1">
          <mxGeometry width="50" height="50" relative="1" as="geometry">
            <mxPoint x="910" y="340" as="sourcePoint" />
            <mxPoint x="960" y="290" as="targetPoint" />
            <Array as="points">
              <mxPoint x="1070" y="204" />
            </Array>
          </mxGeometry>
        </mxCell>
        <mxCell id="1kCUsfdJUAUuM6tlL-a6-254" value="Tiene" style="edgeLabel;html=1;align=center;verticalAlign=middle;resizable=0;points=[];" parent="1kCUsfdJUAUuM6tlL-a6-250" vertex="1" connectable="0">
          <mxGeometry x="0.3168" y="2" relative="1" as="geometry">
            <mxPoint x="-38" y="26" as="offset" />
          </mxGeometry>
        </mxCell>
        <mxCell id="1kCUsfdJUAUuM6tlL-a6-256" value="(0, n)" style="edgeLabel;html=1;align=center;verticalAlign=middle;resizable=0;points=[];" parent="1kCUsfdJUAUuM6tlL-a6-250" vertex="1" connectable="0">
          <mxGeometry x="-0.7343" y="2" relative="1" as="geometry">
            <mxPoint x="2" y="18" as="offset" />
          </mxGeometry>
        </mxCell>
        <mxCell id="w49QsyoUhsdQdudKb_It-8" style="edgeStyle=orthogonalEdgeStyle;rounded=0;orthogonalLoop=1;jettySize=auto;html=1;entryX=0.5;entryY=1;entryDx=0;entryDy=0;" parent="1" source="1kCUsfdJUAUuM6tlL-a6-251" target="1kCUsfdJUAUuM6tlL-a6-195" edge="1">
          <mxGeometry relative="1" as="geometry" />
        </mxCell>
        <mxCell id="w49QsyoUhsdQdudKb_It-10" value="(0, n)" style="edgeLabel;html=1;align=center;verticalAlign=middle;resizable=0;points=[];" parent="w49QsyoUhsdQdudKb_It-8" connectable="0" vertex="1">
          <mxGeometry x="-0.2529" y="1" relative="1" as="geometry">
            <mxPoint x="21" as="offset" />
          </mxGeometry>
        </mxCell>
        <mxCell id="1kCUsfdJUAUuM6tlL-a6-251" value="Tiene" style="rhombus;whiteSpace=wrap;html=1;fillColor=#fff2cc;strokeColor=#d6b656;" parent="1" vertex="1">
          <mxGeometry x="1040" y="280.75" width="120" height="75" as="geometry" />
        </mxCell>
        <mxCell id="1kCUsfdJUAUuM6tlL-a6-253" value="" style="endArrow=classic;html=1;rounded=0;exitX=0.5;exitY=0;exitDx=0;exitDy=0;entryX=0;entryY=0.5;entryDx=0;entryDy=0;endFill=1;" parent="1" source="1kCUsfdJUAUuM6tlL-a6-70" target="1kCUsfdJUAUuM6tlL-a6-249" edge="1">
          <mxGeometry width="50" height="50" relative="1" as="geometry">
            <mxPoint x="527.75" y="302.12" as="sourcePoint" />
            <mxPoint x="517.75" y="182.12" as="targetPoint" />
            <Array as="points">
              <mxPoint x="574" y="200" />
            </Array>
          </mxGeometry>
        </mxCell>
        <mxCell id="KqJ0mgOLyfm1o9Krcu3l-18" value="Pertenece" style="edgeLabel;html=1;align=center;verticalAlign=middle;resizable=0;points=[];" parent="1kCUsfdJUAUuM6tlL-a6-253" connectable="0" vertex="1">
          <mxGeometry x="0.1453" y="1" relative="1" as="geometry">
            <mxPoint x="60" y="-17" as="offset" />
          </mxGeometry>
        </mxCell>
        <mxCell id="KqJ0mgOLyfm1o9Krcu3l-19" value="(1, 1)" style="edgeLabel;html=1;align=center;verticalAlign=middle;resizable=0;points=[];" parent="1kCUsfdJUAUuM6tlL-a6-253" connectable="0" vertex="1">
          <mxGeometry x="0.3842" y="3" relative="1" as="geometry">
            <mxPoint y="21" as="offset" />
          </mxGeometry>
        </mxCell>
        <mxCell id="1kCUsfdJUAUuM6tlL-a6-258" value="&lt;span style=&quot;font-size: 15px;&quot;&gt;AUTOR&lt;/span&gt;" style="rounded=0;whiteSpace=wrap;html=1;fillColor=#f5f5f5;fontColor=#333333;strokeColor=#666666;" parent="1" vertex="1">
          <mxGeometry x="2190" y="812.0000000000002" width="120" height="60" as="geometry" />
        </mxCell>
        <mxCell id="1kCUsfdJUAUuM6tlL-a6-259" value="" style="ellipse;whiteSpace=wrap;html=1;aspect=fixed;fillColor=#FFFFFF;" parent="1" vertex="1">
          <mxGeometry x="2421.4" y="-100.93" width="40" height="40" as="geometry" />
        </mxCell>
        <mxCell id="1kCUsfdJUAUuM6tlL-a6-260" value="Título" style="text;html=1;strokeColor=none;fillColor=none;align=center;verticalAlign=middle;whiteSpace=wrap;rounded=0;" parent="1" vertex="1">
          <mxGeometry x="2415" y="-130.93" width="30" height="30" as="geometry" />
        </mxCell>
        <mxCell id="1kCUsfdJUAUuM6tlL-a6-261" value="" style="ellipse;whiteSpace=wrap;html=1;aspect=fixed;fillColor=#FFFFFF;" parent="1" vertex="1">
          <mxGeometry x="2465" y="-115.93" width="40" height="40" as="geometry" />
        </mxCell>
        <mxCell id="1kCUsfdJUAUuM6tlL-a6-262" value="Subtítulo" style="text;html=1;strokeColor=none;fillColor=none;align=center;verticalAlign=middle;whiteSpace=wrap;rounded=0;" parent="1" vertex="1">
          <mxGeometry x="2470" y="-145.93" width="30" height="30" as="geometry" />
        </mxCell>
        <mxCell id="1kCUsfdJUAUuM6tlL-a6-263" value="" style="ellipse;whiteSpace=wrap;html=1;aspect=fixed;fillColor=#FFFFFF;" parent="1" vertex="1">
          <mxGeometry x="2510" y="-130.93" width="40" height="40" as="geometry" />
        </mxCell>
        <mxCell id="1kCUsfdJUAUuM6tlL-a6-264" value="Fecha de publicación" style="text;html=1;strokeColor=none;fillColor=none;align=center;verticalAlign=middle;whiteSpace=wrap;rounded=0;" parent="1" vertex="1">
          <mxGeometry x="2485" y="-167.18" width="100" height="30" as="geometry" />
        </mxCell>
        <mxCell id="1kCUsfdJUAUuM6tlL-a6-265" value="" style="endArrow=none;html=1;rounded=0;" parent="1" source="1kCUsfdJUAUuM6tlL-a6-259" target="1kCUsfdJUAUuM6tlL-a6-177" edge="1">
          <mxGeometry width="50" height="50" relative="1" as="geometry">
            <mxPoint x="2396.4" y="13.999999999999986" as="sourcePoint" />
            <mxPoint x="2474.9998165698566" y="-26.249999999999993" as="targetPoint" />
          </mxGeometry>
        </mxCell>
        <mxCell id="1kCUsfdJUAUuM6tlL-a6-266" value="" style="endArrow=none;html=1;rounded=0;" parent="1" source="1kCUsfdJUAUuM6tlL-a6-261" target="1kCUsfdJUAUuM6tlL-a6-177" edge="1">
          <mxGeometry width="50" height="50" relative="1" as="geometry">
            <mxPoint x="2400" y="23.999999999999986" as="sourcePoint" />
            <mxPoint x="2491.5285845307244" y="-26.249999999999993" as="targetPoint" />
          </mxGeometry>
        </mxCell>
        <mxCell id="1kCUsfdJUAUuM6tlL-a6-267" value="" style="endArrow=none;html=1;rounded=0;" parent="1" source="1kCUsfdJUAUuM6tlL-a6-263" target="1kCUsfdJUAUuM6tlL-a6-177" edge="1">
          <mxGeometry width="50" height="50" relative="1" as="geometry">
            <mxPoint x="2450" y="33.999999999999986" as="sourcePoint" />
            <mxPoint x="2500" y="33.999999999999986" as="targetPoint" />
          </mxGeometry>
        </mxCell>
        <mxCell id="1kCUsfdJUAUuM6tlL-a6-268" value="" style="ellipse;whiteSpace=wrap;html=1;aspect=fixed;fillColor=#FFFFFF;" parent="1" vertex="1">
          <mxGeometry x="2390" y="156.25" width="40" height="40" as="geometry" />
        </mxCell>
        <mxCell id="1kCUsfdJUAUuM6tlL-a6-269" value="" style="endArrow=none;html=1;rounded=0;" parent="1" source="1kCUsfdJUAUuM6tlL-a6-268" target="1kCUsfdJUAUuM6tlL-a6-190" edge="1">
          <mxGeometry width="50" height="50" relative="1" as="geometry">
            <mxPoint x="2418" y="236.5" as="sourcePoint" />
            <mxPoint x="2487" y="181.5" as="targetPoint" />
          </mxGeometry>
        </mxCell>
        <mxCell id="1kCUsfdJUAUuM6tlL-a6-270" value="" style="ellipse;whiteSpace=wrap;html=1;aspect=fixed;fillColor=#FFFFFF;" parent="1" vertex="1">
          <mxGeometry x="2320" y="156.25" width="40" height="40" as="geometry" />
        </mxCell>
        <mxCell id="1kCUsfdJUAUuM6tlL-a6-271" value="" style="endArrow=none;html=1;rounded=0;" parent="1" source="1kCUsfdJUAUuM6tlL-a6-270" target="1kCUsfdJUAUuM6tlL-a6-190" edge="1">
          <mxGeometry width="50" height="50" relative="1" as="geometry">
            <mxPoint x="2268" y="242.75" as="sourcePoint" />
            <mxPoint x="2198" y="232.75" as="targetPoint" />
          </mxGeometry>
        </mxCell>
        <mxCell id="1kCUsfdJUAUuM6tlL-a6-272" value="" style="ellipse;whiteSpace=wrap;html=1;aspect=fixed;fillColor=#FFFFFF;" parent="1" vertex="1">
          <mxGeometry x="2110" y="525.7500000000002" width="40" height="40" as="geometry" />
        </mxCell>
        <mxCell id="1kCUsfdJUAUuM6tlL-a6-273" value="" style="endArrow=none;html=1;rounded=0;entryX=0;entryY=0.25;entryDx=0;entryDy=0;" parent="1" source="1kCUsfdJUAUuM6tlL-a6-272" target="PQ7QhmWz4cb6mw0TIRbO-16" edge="1">
          <mxGeometry width="50" height="50" relative="1" as="geometry">
            <mxPoint x="1948" y="688.0000000000002" as="sourcePoint" />
            <mxPoint x="2137.826086956522" y="624.0000000000002" as="targetPoint" />
          </mxGeometry>
        </mxCell>
        <mxCell id="1kCUsfdJUAUuM6tlL-a6-274" value="" style="ellipse;whiteSpace=wrap;html=1;aspect=fixed;fillColor=#FFFFFF;" parent="1" vertex="1">
          <mxGeometry x="2110" y="604.2500000000002" width="40" height="40" as="geometry" />
        </mxCell>
        <mxCell id="1kCUsfdJUAUuM6tlL-a6-275" value="" style="endArrow=none;html=1;rounded=0;entryX=0;entryY=0.75;entryDx=0;entryDy=0;" parent="1" source="1kCUsfdJUAUuM6tlL-a6-274" target="PQ7QhmWz4cb6mw0TIRbO-16" edge="1">
          <mxGeometry width="50" height="50" relative="1" as="geometry">
            <mxPoint x="1938" y="852.7500000000002" as="sourcePoint" />
            <mxPoint x="2130" y="654.0000000000002" as="targetPoint" />
          </mxGeometry>
        </mxCell>
        <mxCell id="1kCUsfdJUAUuM6tlL-a6-276" value="Editorial" style="text;html=1;strokeColor=none;fillColor=none;align=center;verticalAlign=middle;whiteSpace=wrap;rounded=0;" parent="1" vertex="1">
          <mxGeometry x="2395" y="121.25" width="30" height="30" as="geometry" />
        </mxCell>
        <mxCell id="1kCUsfdJUAUuM6tlL-a6-278" value="Número de Paginas" style="text;html=1;strokeColor=none;fillColor=none;align=center;verticalAlign=middle;whiteSpace=wrap;rounded=0;" parent="1" vertex="1">
          <mxGeometry x="2295" y="117.5" width="90" height="30" as="geometry" />
        </mxCell>
        <mxCell id="1kCUsfdJUAUuM6tlL-a6-279" value="Tiene" style="rhombus;whiteSpace=wrap;html=1;fillColor=#fff2cc;strokeColor=#d6b656;" parent="1" vertex="1">
          <mxGeometry x="2190" y="669.5000000000002" width="120" height="75" as="geometry" />
        </mxCell>
        <mxCell id="jkM7sGCJCovtD3GpfnSf-1" value="" style="shape=requiredInterface;html=1;verticalLabelPosition=bottom;sketch=0;rotation=90;" parent="1" vertex="1">
          <mxGeometry x="2515" y="116.75" width="30" height="103.75" as="geometry" />
        </mxCell>
        <mxCell id="lAJKYJz9y4R-1p3vpxUl-35" style="edgeStyle=orthogonalEdgeStyle;rounded=0;orthogonalLoop=1;jettySize=auto;html=1;entryX=0.5;entryY=0;entryDx=0;entryDy=0;exitX=0.5;exitY=1;exitDx=0;exitDy=0;" parent="1" source="PQ7QhmWz4cb6mw0TIRbO-1" target="lAJKYJz9y4R-1p3vpxUl-34" edge="1">
          <mxGeometry relative="1" as="geometry" />
        </mxCell>
        <mxCell id="w49QsyoUhsdQdudKb_It-3" value="Asociado a" style="edgeLabel;html=1;align=center;verticalAlign=middle;resizable=0;points=[];" parent="lAJKYJz9y4R-1p3vpxUl-35" connectable="0" vertex="1">
          <mxGeometry x="-0.1741" relative="1" as="geometry">
            <mxPoint x="-36" y="9" as="offset" />
          </mxGeometry>
        </mxCell>
        <mxCell id="w49QsyoUhsdQdudKb_It-4" value="(1, 1)" style="edgeLabel;html=1;align=center;verticalAlign=middle;resizable=0;points=[];" parent="lAJKYJz9y4R-1p3vpxUl-35" connectable="0" vertex="1">
          <mxGeometry x="-0.0746" relative="1" as="geometry">
            <mxPoint x="24" y="4" as="offset" />
          </mxGeometry>
        </mxCell>
        <mxCell id="PQ7QhmWz4cb6mw0TIRbO-1" value="&lt;span style=&quot;font-size: 15px;&quot;&gt;HORARIO&lt;/span&gt;" style="rounded=0;whiteSpace=wrap;html=1;fillColor=#f5f5f5;fontColor=#333333;strokeColor=#666666;" parent="1" vertex="1">
          <mxGeometry x="1585.58" y="233.13" width="120" height="60" as="geometry" />
        </mxCell>
        <mxCell id="PQ7QhmWz4cb6mw0TIRbO-3" value="" style="shape=requiredInterface;html=1;verticalLabelPosition=bottom;sketch=0;rotation=90;" parent="1" vertex="1">
          <mxGeometry x="563.75" y="535.75" width="30" height="103.75" as="geometry" />
        </mxCell>
        <mxCell id="PQ7QhmWz4cb6mw0TIRbO-7" value="TARJETA SOCIO" style="rounded=0;whiteSpace=wrap;html=1;fillColor=#f5f5f5;fontColor=#333333;strokeColor=#666666;" parent="1" vertex="1">
          <mxGeometry x="608.75" y="840.25" width="120" height="60" as="geometry" />
        </mxCell>
        <mxCell id="PQ7QhmWz4cb6mw0TIRbO-8" style="edgeStyle=orthogonalEdgeStyle;rounded=0;orthogonalLoop=1;jettySize=auto;html=1;exitX=0.5;exitY=1;exitDx=0;exitDy=0;" parent="1" source="PQ7QhmWz4cb6mw0TIRbO-7" target="PQ7QhmWz4cb6mw0TIRbO-7" edge="1">
          <mxGeometry relative="1" as="geometry" />
        </mxCell>
        <mxCell id="PQ7QhmWz4cb6mw0TIRbO-9" value="" style="triangle;whiteSpace=wrap;html=1;rotation=90;fillColor=#fff2cc;strokeColor=#d6b656;" parent="1" vertex="1">
          <mxGeometry x="2340" y="379.75" width="60" height="80" as="geometry" />
        </mxCell>
        <mxCell id="PQ7QhmWz4cb6mw0TIRbO-10" value="" style="ellipse;whiteSpace=wrap;html=1;fillColor=#fff2cc;strokeColor=#d6b656;" parent="1" vertex="1">
          <mxGeometry x="2360" y="372.75" width="20" height="10" as="geometry" />
        </mxCell>
        <mxCell id="PQ7QhmWz4cb6mw0TIRbO-11" value="" style="ellipse;whiteSpace=wrap;html=1;aspect=fixed;fillColor=#FFFFFF;" parent="1" vertex="1">
          <mxGeometry x="2430" y="357.75" width="40" height="40" as="geometry" />
        </mxCell>
        <mxCell id="PQ7QhmWz4cb6mw0TIRbO-12" value="Tipo" style="text;html=1;align=center;verticalAlign=middle;resizable=0;points=[];autosize=1;strokeColor=none;fillColor=none;" parent="1" vertex="1">
          <mxGeometry x="2425" y="329.75" width="50" height="30" as="geometry" />
        </mxCell>
        <mxCell id="PQ7QhmWz4cb6mw0TIRbO-13" value="" style="endArrow=none;html=1;rounded=0;" parent="1" source="PQ7QhmWz4cb6mw0TIRbO-10" target="PQ7QhmWz4cb6mw0TIRbO-11" edge="1">
          <mxGeometry width="50" height="50" relative="1" as="geometry">
            <mxPoint x="2415" y="354.75" as="sourcePoint" />
            <mxPoint x="2675" y="299.75" as="targetPoint" />
          </mxGeometry>
        </mxCell>
        <mxCell id="PQ7QhmWz4cb6mw0TIRbO-14" value="" style="shape=requiredInterface;html=1;verticalLabelPosition=bottom;sketch=0;rotation=90;" parent="1" vertex="1">
          <mxGeometry x="2355" y="392.62" width="30" height="103.75" as="geometry" />
        </mxCell>
        <mxCell id="PQ7QhmWz4cb6mw0TIRbO-15" value="" style="endArrow=none;html=1;rounded=0;entryX=0.5;entryY=0;entryDx=0;entryDy=0;" parent="1" source="1kCUsfdJUAUuM6tlL-a6-190" target="PQ7QhmWz4cb6mw0TIRbO-10" edge="1">
          <mxGeometry width="50" height="50" relative="1" as="geometry">
            <mxPoint x="2380" y="240" as="sourcePoint" />
            <mxPoint x="2430" y="190" as="targetPoint" />
          </mxGeometry>
        </mxCell>
        <mxCell id="PQ7QhmWz4cb6mw0TIRbO-16" value="&lt;font style=&quot;font-size: 15px;&quot;&gt;LIBRO&lt;/font&gt;" style="rounded=0;whiteSpace=wrap;html=1;fillColor=#f5f5f5;fontColor=#333333;strokeColor=#666666;" parent="1" vertex="1">
          <mxGeometry x="2190" y="551.2500000000002" width="120" height="60" as="geometry" />
        </mxCell>
        <mxCell id="PQ7QhmWz4cb6mw0TIRbO-17" value="&lt;span style=&quot;font-size: 15px;&quot;&gt;MATERIAL&lt;br&gt;PERIÓDICO&lt;br&gt;&lt;/span&gt;" style="rounded=0;whiteSpace=wrap;html=1;fillColor=#f5f5f5;fontColor=#333333;strokeColor=#666666;" parent="1" vertex="1">
          <mxGeometry x="2415" y="547.7500000000002" width="120" height="60" as="geometry" />
        </mxCell>
        <mxCell id="PQ7QhmWz4cb6mw0TIRbO-18" value="" style="ellipse;whiteSpace=wrap;html=1;aspect=fixed;fillColor=#FFFFFF;" parent="1" vertex="1">
          <mxGeometry x="2562.5" y="557.7500000000002" width="40" height="40" as="geometry" />
        </mxCell>
        <mxCell id="PQ7QhmWz4cb6mw0TIRbO-19" value="Tipo (revista o peridico)" style="text;html=1;strokeColor=none;fillColor=none;align=center;verticalAlign=middle;whiteSpace=wrap;rounded=0;" parent="1" vertex="1">
          <mxGeometry x="2532.5" y="531.3800000000001" width="145" height="28.75" as="geometry" />
        </mxCell>
        <mxCell id="PQ7QhmWz4cb6mw0TIRbO-20" value="" style="endArrow=none;html=1;rounded=0;exitX=1;exitY=0.5;exitDx=0;exitDy=0;" parent="1" source="PQ7QhmWz4cb6mw0TIRbO-17" target="PQ7QhmWz4cb6mw0TIRbO-18" edge="1">
          <mxGeometry width="50" height="50" relative="1" as="geometry">
            <mxPoint x="2316" y="229.75" as="sourcePoint" />
            <mxPoint x="2422" y="152.75" as="targetPoint" />
          </mxGeometry>
        </mxCell>
        <mxCell id="IVmboD1sUlWuUzW_DHES-1" value="" style="ellipse;whiteSpace=wrap;html=1;aspect=fixed;fillColor=#FFFFFF;" parent="1" vertex="1">
          <mxGeometry x="2557.5" y="-115.93" width="40" height="40" as="geometry" />
        </mxCell>
        <mxCell id="IVmboD1sUlWuUzW_DHES-2" value="" style="endArrow=none;html=1;rounded=0;" parent="1" source="IVmboD1sUlWuUzW_DHES-1" target="1kCUsfdJUAUuM6tlL-a6-177" edge="1">
          <mxGeometry width="50" height="50" relative="1" as="geometry">
            <mxPoint x="2500" y="30.249999999999986" as="sourcePoint" />
            <mxPoint x="2569" y="-23.999999999999993" as="targetPoint" />
            <Array as="points" />
          </mxGeometry>
        </mxCell>
        <mxCell id="IVmboD1sUlWuUzW_DHES-3" value="" style="ellipse;whiteSpace=wrap;html=1;aspect=fixed;fillColor=#FFFFFF;" parent="1" vertex="1">
          <mxGeometry x="2602.5" y="-100.93" width="40" height="40" as="geometry" />
        </mxCell>
        <mxCell id="IVmboD1sUlWuUzW_DHES-4" value="" style="endArrow=none;html=1;rounded=0;" parent="1" source="IVmboD1sUlWuUzW_DHES-3" target="1kCUsfdJUAUuM6tlL-a6-177" edge="1">
          <mxGeometry width="50" height="50" relative="1" as="geometry">
            <mxPoint x="2640" y="-44.74999999999999" as="sourcePoint" />
            <mxPoint x="2723" y="-104.75" as="targetPoint" />
          </mxGeometry>
        </mxCell>
        <mxCell id="IVmboD1sUlWuUzW_DHES-5" value="Portada" style="text;html=1;align=center;verticalAlign=middle;resizable=0;points=[];autosize=1;strokeColor=none;fillColor=none;" parent="1" vertex="1">
          <mxGeometry x="2582.5" y="-134.68" width="70" height="30" as="geometry" />
        </mxCell>
        <mxCell id="IVmboD1sUlWuUzW_DHES-6" value="Género" style="text;html=1;align=center;verticalAlign=middle;resizable=0;points=[];autosize=1;strokeColor=none;fillColor=none;" parent="1" vertex="1">
          <mxGeometry x="2632.5" y="-108.55000000000001" width="60" height="30" as="geometry" />
        </mxCell>
        <mxCell id="IVmboD1sUlWuUzW_DHES-7" value="" style="endArrow=none;html=1;rounded=0;entryX=0.5;entryY=0;entryDx=0;entryDy=0;exitX=0.621;exitY=0.7;exitDx=0;exitDy=0;exitPerimeter=0;" parent="1" source="PQ7QhmWz4cb6mw0TIRbO-9" target="PQ7QhmWz4cb6mw0TIRbO-16" edge="1">
          <mxGeometry width="50" height="50" relative="1" as="geometry">
            <mxPoint x="2350" y="430" as="sourcePoint" />
            <mxPoint x="2522" y="543.0000000000002" as="targetPoint" />
          </mxGeometry>
        </mxCell>
        <mxCell id="IVmboD1sUlWuUzW_DHES-8" value="" style="endArrow=none;html=1;rounded=0;exitX=0.603;exitY=0.298;exitDx=0;exitDy=0;exitPerimeter=0;entryX=0.5;entryY=0;entryDx=0;entryDy=0;" parent="1" source="PQ7QhmWz4cb6mw0TIRbO-9" target="PQ7QhmWz4cb6mw0TIRbO-17" edge="1">
          <mxGeometry width="50" height="50" relative="1" as="geometry">
            <mxPoint x="2390" y="430" as="sourcePoint" />
            <mxPoint x="2532" y="553.0000000000002" as="targetPoint" />
          </mxGeometry>
        </mxCell>
        <mxCell id="IVmboD1sUlWuUzW_DHES-9" value="Estilo literario" style="text;html=1;align=center;verticalAlign=middle;resizable=0;points=[];autosize=1;strokeColor=none;fillColor=none;" parent="1" vertex="1">
          <mxGeometry x="2080" y="491.5000000000002" width="100" height="30" as="geometry" />
        </mxCell>
        <mxCell id="IVmboD1sUlWuUzW_DHES-10" value="Sinopsis" style="text;html=1;align=center;verticalAlign=middle;resizable=0;points=[];autosize=1;strokeColor=none;fillColor=none;" parent="1" vertex="1">
          <mxGeometry x="2095" y="574.2500000000002" width="70" height="30" as="geometry" />
        </mxCell>
        <mxCell id="IVmboD1sUlWuUzW_DHES-11" value="" style="endArrow=none;html=1;rounded=0;entryX=0.5;entryY=1;entryDx=0;entryDy=0;exitX=0.5;exitY=0;exitDx=0;exitDy=0;" parent="1" source="1kCUsfdJUAUuM6tlL-a6-279" target="PQ7QhmWz4cb6mw0TIRbO-16" edge="1">
          <mxGeometry width="50" height="50" relative="1" as="geometry">
            <mxPoint x="2158" y="626.0000000000002" as="sourcePoint" />
            <mxPoint x="2200" y="606.0000000000002" as="targetPoint" />
          </mxGeometry>
        </mxCell>
        <mxCell id="i4JJ-DvGvFb-LeGQvSu3-93" value="Tiene" style="edgeLabel;html=1;align=center;verticalAlign=middle;resizable=0;points=[];" parent="IVmboD1sUlWuUzW_DHES-11" connectable="0" vertex="1">
          <mxGeometry x="0.1535" relative="1" as="geometry">
            <mxPoint x="-20" y="4" as="offset" />
          </mxGeometry>
        </mxCell>
        <mxCell id="i4JJ-DvGvFb-LeGQvSu3-94" value="(0, n)" style="edgeLabel;html=1;align=center;verticalAlign=middle;resizable=0;points=[];" parent="IVmboD1sUlWuUzW_DHES-11" connectable="0" vertex="1">
          <mxGeometry x="0.0063" relative="1" as="geometry">
            <mxPoint x="20" as="offset" />
          </mxGeometry>
        </mxCell>
        <mxCell id="IVmboD1sUlWuUzW_DHES-13" value="" style="endArrow=none;html=1;rounded=0;entryX=0.5;entryY=0;entryDx=0;entryDy=0;exitX=0.5;exitY=1;exitDx=0;exitDy=0;" parent="1" source="1kCUsfdJUAUuM6tlL-a6-279" target="1kCUsfdJUAUuM6tlL-a6-258" edge="1">
          <mxGeometry width="50" height="50" relative="1" as="geometry">
            <mxPoint x="2230" y="708.0000000000002" as="sourcePoint" />
            <mxPoint x="2150" y="613.0000000000002" as="targetPoint" />
          </mxGeometry>
        </mxCell>
        <mxCell id="i4JJ-DvGvFb-LeGQvSu3-91" value="Tiene" style="edgeLabel;html=1;align=center;verticalAlign=middle;resizable=0;points=[];" parent="IVmboD1sUlWuUzW_DHES-13" connectable="0" vertex="1">
          <mxGeometry x="-0.0836" y="-2" relative="1" as="geometry">
            <mxPoint x="-18" y="-2" as="offset" />
          </mxGeometry>
        </mxCell>
        <mxCell id="i4JJ-DvGvFb-LeGQvSu3-92" value="(1, 1)" style="edgeLabel;html=1;align=center;verticalAlign=middle;resizable=0;points=[];" parent="IVmboD1sUlWuUzW_DHES-13" connectable="0" vertex="1">
          <mxGeometry x="-0.0554" y="2" relative="1" as="geometry">
            <mxPoint x="18" as="offset" />
          </mxGeometry>
        </mxCell>
        <mxCell id="IVmboD1sUlWuUzW_DHES-14" value="" style="ellipse;whiteSpace=wrap;html=1;aspect=fixed;fillColor=#000000;" parent="1" vertex="1">
          <mxGeometry x="2090" y="822.0000000000002" width="40" height="40" as="geometry" />
        </mxCell>
        <mxCell id="IVmboD1sUlWuUzW_DHES-15" value="ID" style="text;html=1;strokeColor=none;fillColor=none;align=center;verticalAlign=middle;whiteSpace=wrap;rounded=0;" parent="1" vertex="1">
          <mxGeometry x="2095" y="867.0000000000002" width="30" height="30" as="geometry" />
        </mxCell>
        <mxCell id="IVmboD1sUlWuUzW_DHES-16" value="" style="endArrow=none;html=1;rounded=0;" parent="1" source="IVmboD1sUlWuUzW_DHES-14" target="1kCUsfdJUAUuM6tlL-a6-258" edge="1">
          <mxGeometry width="50" height="50" relative="1" as="geometry">
            <mxPoint x="2473.75" y="850.5000000000002" as="sourcePoint" />
            <mxPoint x="2260" y="830.0000000000002" as="targetPoint" />
          </mxGeometry>
        </mxCell>
        <mxCell id="IVmboD1sUlWuUzW_DHES-17" value="" style="ellipse;whiteSpace=wrap;html=1;aspect=fixed;fillColor=#FFFFFF;" parent="1" vertex="1">
          <mxGeometry x="2125" y="763.3700000000002" width="40" height="40" as="geometry" />
        </mxCell>
        <mxCell id="IVmboD1sUlWuUzW_DHES-18" value="" style="endArrow=none;html=1;rounded=0;" parent="1" source="IVmboD1sUlWuUzW_DHES-17" target="1kCUsfdJUAUuM6tlL-a6-258" edge="1">
          <mxGeometry width="50" height="50" relative="1" as="geometry">
            <mxPoint x="1648" y="953" as="sourcePoint" />
            <mxPoint x="2300" y="842.0000000000002" as="targetPoint" />
          </mxGeometry>
        </mxCell>
        <mxCell id="IVmboD1sUlWuUzW_DHES-19" value="" style="ellipse;whiteSpace=wrap;html=1;aspect=fixed;fillColor=#FFFFFF;" parent="1" vertex="1">
          <mxGeometry x="2355" y="896.1300000000002" width="40" height="40" as="geometry" />
        </mxCell>
        <mxCell id="IVmboD1sUlWuUzW_DHES-20" value="" style="endArrow=none;html=1;rounded=0;" parent="1" source="IVmboD1sUlWuUzW_DHES-19" target="R3LjblSTexKIyi-N9Ws4-2" edge="1">
          <mxGeometry width="50" height="50" relative="1" as="geometry">
            <mxPoint x="1868" y="1058.75" as="sourcePoint" />
            <mxPoint x="2120" y="802.0000000000002" as="targetPoint" />
          </mxGeometry>
        </mxCell>
        <mxCell id="IVmboD1sUlWuUzW_DHES-21" value="Nombre&lt;br&gt;completo" style="text;html=1;align=center;verticalAlign=middle;resizable=0;points=[];autosize=1;strokeColor=none;fillColor=none;" parent="1" vertex="1">
          <mxGeometry x="2370" y="861.1300000000002" width="70" height="40" as="geometry" />
        </mxCell>
        <mxCell id="IVmboD1sUlWuUzW_DHES-30" value="" style="ellipse;whiteSpace=wrap;html=1;aspect=fixed;fillColor=#FFFFFF;" parent="1" vertex="1">
          <mxGeometry x="2477.5" y="970.2500000000002" width="40" height="40" as="geometry" />
        </mxCell>
        <mxCell id="IVmboD1sUlWuUzW_DHES-31" value="" style="endArrow=none;html=1;rounded=0;" parent="1" source="IVmboD1sUlWuUzW_DHES-30" target="IVmboD1sUlWuUzW_DHES-19" edge="1">
          <mxGeometry width="50" height="50" relative="1" as="geometry">
            <mxPoint x="1878" y="1108.75" as="sourcePoint" />
            <mxPoint x="2130" y="852.0000000000002" as="targetPoint" />
          </mxGeometry>
        </mxCell>
        <mxCell id="IVmboD1sUlWuUzW_DHES-32" value="Apellidos" style="text;html=1;align=center;verticalAlign=middle;resizable=0;points=[];autosize=1;strokeColor=none;fillColor=none;" parent="1" vertex="1">
          <mxGeometry x="2462.5" y="1012.7500000000002" width="70" height="30" as="geometry" />
        </mxCell>
        <mxCell id="IVmboD1sUlWuUzW_DHES-33" value="" style="ellipse;whiteSpace=wrap;html=1;aspect=fixed;fillColor=#FFFFFF;" parent="1" vertex="1">
          <mxGeometry x="2590" y="933.6300000000002" width="40" height="40" as="geometry" />
        </mxCell>
        <mxCell id="IVmboD1sUlWuUzW_DHES-34" value="" style="endArrow=none;html=1;rounded=0;" parent="1" source="IVmboD1sUlWuUzW_DHES-33" target="IVmboD1sUlWuUzW_DHES-30" edge="1">
          <mxGeometry width="50" height="50" relative="1" as="geometry">
            <mxPoint x="2010" y="793.3800000000001" as="sourcePoint" />
            <mxPoint x="2075" y="888.8800000000001" as="targetPoint" />
          </mxGeometry>
        </mxCell>
        <mxCell id="IVmboD1sUlWuUzW_DHES-35" value="" style="ellipse;whiteSpace=wrap;html=1;aspect=fixed;fillColor=#FFFFFF;" parent="1" vertex="1">
          <mxGeometry x="2590" y="1020.0000000000002" width="40" height="40" as="geometry" />
        </mxCell>
        <mxCell id="IVmboD1sUlWuUzW_DHES-36" value="" style="endArrow=none;html=1;rounded=0;" parent="1" source="IVmboD1sUlWuUzW_DHES-35" target="IVmboD1sUlWuUzW_DHES-30" edge="1">
          <mxGeometry width="50" height="50" relative="1" as="geometry">
            <mxPoint x="2020" y="803.3800000000001" as="sourcePoint" />
            <mxPoint x="2007.7600000000002" y="878.8800000000001" as="targetPoint" />
          </mxGeometry>
        </mxCell>
        <mxCell id="IVmboD1sUlWuUzW_DHES-37" value="Apellido 1" style="text;html=1;align=center;verticalAlign=middle;resizable=0;points=[];autosize=1;strokeColor=none;fillColor=none;" parent="1" vertex="1">
          <mxGeometry x="2570" y="976.1300000000002" width="80" height="30" as="geometry" />
        </mxCell>
        <mxCell id="IVmboD1sUlWuUzW_DHES-38" value="Apellido 2" style="text;html=1;align=center;verticalAlign=middle;resizable=0;points=[];autosize=1;strokeColor=none;fillColor=none;" parent="1" vertex="1">
          <mxGeometry x="2570" y="1060.0000000000002" width="80" height="30" as="geometry" />
        </mxCell>
        <mxCell id="IVmboD1sUlWuUzW_DHES-41" value="" style="ellipse;whiteSpace=wrap;html=1;aspect=fixed;fillColor=#FFFFFF;" parent="1" vertex="1">
          <mxGeometry x="2085" y="900.2500000000002" width="40" height="40" as="geometry" />
        </mxCell>
        <mxCell id="IVmboD1sUlWuUzW_DHES-42" value="" style="endArrow=none;html=1;rounded=0;" parent="1" source="IVmboD1sUlWuUzW_DHES-41" target="1kCUsfdJUAUuM6tlL-a6-258" edge="1">
          <mxGeometry width="50" height="50" relative="1" as="geometry">
            <mxPoint x="1928" y="1128.75" as="sourcePoint" />
            <mxPoint x="2180" y="912.0000000000002" as="targetPoint" />
          </mxGeometry>
        </mxCell>
        <mxCell id="IVmboD1sUlWuUzW_DHES-43" value="Sexo" style="text;html=1;align=center;verticalAlign=middle;resizable=0;points=[];autosize=1;strokeColor=none;fillColor=none;" parent="1" vertex="1">
          <mxGeometry x="2060" y="940.25" width="50" height="30" as="geometry" />
        </mxCell>
        <mxCell id="IVmboD1sUlWuUzW_DHES-47" value="" style="ellipse;whiteSpace=wrap;html=1;aspect=fixed;fillColor=#FFFFFF;" parent="1" vertex="1">
          <mxGeometry x="2280" y="930.2500000000002" width="40" height="40" as="geometry" />
        </mxCell>
        <mxCell id="IVmboD1sUlWuUzW_DHES-48" value="" style="endArrow=none;html=1;rounded=0;entryX=0.5;entryY=1;entryDx=0;entryDy=0;" parent="1" source="IVmboD1sUlWuUzW_DHES-47" edge="1">
          <mxGeometry width="50" height="50" relative="1" as="geometry">
            <mxPoint x="2108" y="1178.75" as="sourcePoint" />
            <mxPoint x="2280" y="872.0000000000002" as="targetPoint" />
          </mxGeometry>
        </mxCell>
        <mxCell id="IVmboD1sUlWuUzW_DHES-49" value="Fecha de&lt;br&gt;nacimiento" style="text;html=1;align=center;verticalAlign=middle;resizable=0;points=[];autosize=1;strokeColor=none;fillColor=none;" parent="1" vertex="1">
          <mxGeometry x="2270" y="966.1299999999999" width="80" height="40" as="geometry" />
        </mxCell>
        <mxCell id="IVmboD1sUlWuUzW_DHES-50" value="Fecha de muerte" style="text;html=1;align=center;verticalAlign=middle;resizable=0;points=[];autosize=1;strokeColor=none;fillColor=none;" parent="1" vertex="1">
          <mxGeometry x="2085" y="733.3700000000002" width="110" height="30" as="geometry" />
        </mxCell>
        <mxCell id="IVmboD1sUlWuUzW_DHES-51" value="" style="ellipse;whiteSpace=wrap;html=1;aspect=fixed;fillColor=#FFFFFF;" parent="1" vertex="1">
          <mxGeometry x="2785" y="183.13" width="40" height="40" as="geometry" />
        </mxCell>
        <mxCell id="IVmboD1sUlWuUzW_DHES-52" value="" style="endArrow=none;html=1;rounded=0;" parent="1" source="IVmboD1sUlWuUzW_DHES-51" target="1kCUsfdJUAUuM6tlL-a6-191" edge="1">
          <mxGeometry width="50" height="50" relative="1" as="geometry">
            <mxPoint x="2733" y="212.75" as="sourcePoint" />
            <mxPoint x="2824" y="196" as="targetPoint" />
          </mxGeometry>
        </mxCell>
        <mxCell id="IVmboD1sUlWuUzW_DHES-53" value="Duracion" style="text;html=1;strokeColor=none;fillColor=none;align=center;verticalAlign=middle;whiteSpace=wrap;rounded=0;" parent="1" vertex="1">
          <mxGeometry x="2840" y="183.75" width="30" height="32.5" as="geometry" />
        </mxCell>
        <mxCell id="IVmboD1sUlWuUzW_DHES-54" value="" style="ellipse;whiteSpace=wrap;html=1;aspect=fixed;fillColor=#FFFFFF;" parent="1" vertex="1">
          <mxGeometry x="2785" y="237" width="40" height="40" as="geometry" />
        </mxCell>
        <mxCell id="IVmboD1sUlWuUzW_DHES-55" value="" style="endArrow=none;html=1;rounded=0;" parent="1" source="IVmboD1sUlWuUzW_DHES-54" target="1kCUsfdJUAUuM6tlL-a6-191" edge="1">
          <mxGeometry width="50" height="50" relative="1" as="geometry">
            <mxPoint x="2733" y="234.75" as="sourcePoint" />
            <mxPoint x="2745" y="262.75" as="targetPoint" />
          </mxGeometry>
        </mxCell>
        <mxCell id="IVmboD1sUlWuUzW_DHES-56" value="Categoría (documental, serie, película)" style="text;html=1;strokeColor=none;fillColor=none;align=center;verticalAlign=middle;whiteSpace=wrap;rounded=0;" parent="1" vertex="1">
          <mxGeometry x="2810" y="241.25" width="250" height="30" as="geometry" />
        </mxCell>
        <mxCell id="IVmboD1sUlWuUzW_DHES-57" value="" style="ellipse;whiteSpace=wrap;html=1;aspect=fixed;fillColor=#FFFFFF;" parent="1" vertex="1">
          <mxGeometry x="2785" y="289.38" width="40" height="40" as="geometry" />
        </mxCell>
        <mxCell id="IVmboD1sUlWuUzW_DHES-58" value="" style="endArrow=none;html=1;rounded=0;" parent="1" source="IVmboD1sUlWuUzW_DHES-57" target="1kCUsfdJUAUuM6tlL-a6-191" edge="1">
          <mxGeometry width="50" height="50" relative="1" as="geometry">
            <mxPoint x="2818" y="370.38" as="sourcePoint" />
            <mxPoint x="2765" y="309.75" as="targetPoint" />
          </mxGeometry>
        </mxCell>
        <mxCell id="IVmboD1sUlWuUzW_DHES-59" value="Tipo (DVD, CD, CD-ROM, VHS, Audiolibro)" style="text;html=1;strokeColor=none;fillColor=none;align=center;verticalAlign=middle;whiteSpace=wrap;rounded=0;" parent="1" vertex="1">
          <mxGeometry x="2825" y="294.38" width="235" height="30" as="geometry" />
        </mxCell>
        <mxCell id="IVmboD1sUlWuUzW_DHES-60" value="" style="endArrow=none;html=1;rounded=0;exitX=0.5;exitY=1;exitDx=0;exitDy=0;entryX=0.5;entryY=0;entryDx=0;entryDy=0;" parent="1" source="1kCUsfdJUAUuM6tlL-a6-191" target="IVmboD1sUlWuUzW_DHES-61" edge="1">
          <mxGeometry width="50" height="50" relative="1" as="geometry">
            <mxPoint x="2690" y="357" as="sourcePoint" />
            <mxPoint x="2770" y="550.0000000000002" as="targetPoint" />
          </mxGeometry>
        </mxCell>
        <mxCell id="i4JJ-DvGvFb-LeGQvSu3-95" value="Tiene" style="edgeLabel;html=1;align=center;verticalAlign=middle;resizable=0;points=[];" parent="IVmboD1sUlWuUzW_DHES-60" connectable="0" vertex="1">
          <mxGeometry x="0.0325" relative="1" as="geometry">
            <mxPoint x="-25" y="-133" as="offset" />
          </mxGeometry>
        </mxCell>
        <mxCell id="i4JJ-DvGvFb-LeGQvSu3-96" value="(0, n)" style="edgeLabel;html=1;align=center;verticalAlign=middle;resizable=0;points=[];" parent="IVmboD1sUlWuUzW_DHES-60" connectable="0" vertex="1">
          <mxGeometry x="0.0661" y="-1" relative="1" as="geometry">
            <mxPoint x="26" y="-140" as="offset" />
          </mxGeometry>
        </mxCell>
        <mxCell id="IVmboD1sUlWuUzW_DHES-61" value="Tiene" style="rhombus;whiteSpace=wrap;html=1;fillColor=#fff2cc;strokeColor=#d6b656;" parent="1" vertex="1">
          <mxGeometry x="2640" y="669.0000000000002" width="120" height="75" as="geometry" />
        </mxCell>
        <mxCell id="IVmboD1sUlWuUzW_DHES-62" value="" style="endArrow=none;html=1;rounded=0;exitX=0.5;exitY=1;exitDx=0;exitDy=0;entryX=1;entryY=0.5;entryDx=0;entryDy=0;" parent="1" source="IVmboD1sUlWuUzW_DHES-61" target="1kCUsfdJUAUuM6tlL-a6-258" edge="1">
          <mxGeometry width="50" height="50" relative="1" as="geometry">
            <mxPoint x="2850" y="657.1300000000001" as="sourcePoint" />
            <mxPoint x="2250" y="810.0000000000002" as="targetPoint" />
            <Array as="points">
              <mxPoint x="2700" y="842" />
            </Array>
          </mxGeometry>
        </mxCell>
        <mxCell id="i4JJ-DvGvFb-LeGQvSu3-97" value="Tiene" style="edgeLabel;html=1;align=center;verticalAlign=middle;resizable=0;points=[];" parent="IVmboD1sUlWuUzW_DHES-62" connectable="0" vertex="1">
          <mxGeometry x="0.6295" y="1" relative="1" as="geometry">
            <mxPoint x="-50" y="-13" as="offset" />
          </mxGeometry>
        </mxCell>
        <mxCell id="i4JJ-DvGvFb-LeGQvSu3-98" value="(0, n)" style="edgeLabel;html=1;align=center;verticalAlign=middle;resizable=0;points=[];" parent="IVmboD1sUlWuUzW_DHES-62" connectable="0" vertex="1">
          <mxGeometry x="0.6294" y="-3" relative="1" as="geometry">
            <mxPoint x="-50" y="22" as="offset" />
          </mxGeometry>
        </mxCell>
        <mxCell id="R3LjblSTexKIyi-N9Ws4-1" value="" style="ellipse;whiteSpace=wrap;html=1;aspect=fixed;fillColor=#FFFFFF;" parent="1" vertex="1">
          <mxGeometry x="2606.25" y="-97.17999999999999" width="32.5" height="32.5" as="geometry" />
        </mxCell>
        <mxCell id="R3LjblSTexKIyi-N9Ws4-2" value="" style="ellipse;whiteSpace=wrap;html=1;aspect=fixed;fillColor=#FFFFFF;" parent="1" vertex="1">
          <mxGeometry x="2480" y="896.1300000000002" width="40" height="40" as="geometry" />
        </mxCell>
        <mxCell id="R3LjblSTexKIyi-N9Ws4-3" value="Nombre" style="text;html=1;align=center;verticalAlign=middle;resizable=0;points=[];autosize=1;strokeColor=none;fillColor=none;" parent="1" vertex="1">
          <mxGeometry x="2465" y="866.1300000000002" width="70" height="30" as="geometry" />
        </mxCell>
        <mxCell id="R3LjblSTexKIyi-N9Ws4-4" value="" style="endArrow=none;html=1;rounded=0;" parent="1" source="1kCUsfdJUAUuM6tlL-a6-258" target="IVmboD1sUlWuUzW_DHES-19" edge="1">
          <mxGeometry width="50" height="50" relative="1" as="geometry">
            <mxPoint x="2094" y="817.0000000000002" as="sourcePoint" />
            <mxPoint x="2016" y="761.0000000000002" as="targetPoint" />
          </mxGeometry>
        </mxCell>
        <mxCell id="w49QsyoUhsdQdudKb_It-15" style="edgeStyle=orthogonalEdgeStyle;rounded=0;orthogonalLoop=1;jettySize=auto;html=1;entryX=0;entryY=0.5;entryDx=0;entryDy=0;" parent="1" source="GTJ9kHywWiIw0Ljh5JeB-1" target="PQ7QhmWz4cb6mw0TIRbO-1" edge="1">
          <mxGeometry relative="1" as="geometry" />
        </mxCell>
        <mxCell id="w49QsyoUhsdQdudKb_It-19" value="Trabaja con" style="edgeLabel;html=1;align=center;verticalAlign=middle;resizable=0;points=[];" parent="w49QsyoUhsdQdudKb_It-15" connectable="0" vertex="1">
          <mxGeometry x="-0.1484" y="1" relative="1" as="geometry">
            <mxPoint x="1" y="-17" as="offset" />
          </mxGeometry>
        </mxCell>
        <mxCell id="w49QsyoUhsdQdudKb_It-20" value="(1,1)" style="edgeLabel;html=1;align=center;verticalAlign=middle;resizable=0;points=[];" parent="w49QsyoUhsdQdudKb_It-15" connectable="0" vertex="1">
          <mxGeometry x="-0.1937" y="2" relative="1" as="geometry">
            <mxPoint x="2" y="16" as="offset" />
          </mxGeometry>
        </mxCell>
        <mxCell id="GTJ9kHywWiIw0Ljh5JeB-1" value="Trabaja" style="rhombus;whiteSpace=wrap;html=1;fillColor=#fff2cc;strokeColor=#d6b656;" parent="1" vertex="1">
          <mxGeometry x="1349.33" y="225.01" width="120" height="75" as="geometry" />
        </mxCell>
        <mxCell id="GTJ9kHywWiIw0Ljh5JeB-4" value="Fecha/hora de registro" style="text;html=1;align=center;verticalAlign=middle;resizable=0;points=[];autosize=1;strokeColor=none;fillColor=none;" parent="1" vertex="1">
          <mxGeometry x="1277.0900000000001" y="699" width="140" height="30" as="geometry" />
        </mxCell>
        <mxCell id="GTJ9kHywWiIw0Ljh5JeB-9" value="" style="ellipse;whiteSpace=wrap;html=1;aspect=fixed;fillColor=#FFFFFF;" parent="1" vertex="1">
          <mxGeometry x="1277.0900000000004" y="242.76" width="40" height="40" as="geometry" />
        </mxCell>
        <mxCell id="GTJ9kHywWiIw0Ljh5JeB-10" value="" style="ellipse;whiteSpace=wrap;html=1;aspect=fixed;fillColor=#FFFFFF;" parent="1" vertex="1">
          <mxGeometry x="1203.8400000000004" y="214.63" width="40" height="40" as="geometry" />
        </mxCell>
        <mxCell id="GTJ9kHywWiIw0Ljh5JeB-11" value="" style="ellipse;whiteSpace=wrap;html=1;aspect=fixed;fillColor=#FFFFFF;" parent="1" vertex="1">
          <mxGeometry x="1203.8400000000004" y="277.13" width="40" height="40" as="geometry" />
        </mxCell>
        <mxCell id="GTJ9kHywWiIw0Ljh5JeB-12" value="" style="endArrow=none;html=1;rounded=0;" parent="1" source="GTJ9kHywWiIw0Ljh5JeB-9" target="GTJ9kHywWiIw0Ljh5JeB-10" edge="1">
          <mxGeometry width="50" height="50" relative="1" as="geometry">
            <mxPoint x="1265.84" y="380.01" as="sourcePoint" />
            <mxPoint x="1315.84" y="330.01" as="targetPoint" />
          </mxGeometry>
        </mxCell>
        <mxCell id="GTJ9kHywWiIw0Ljh5JeB-13" value="" style="endArrow=none;html=1;rounded=0;" parent="1" source="GTJ9kHywWiIw0Ljh5JeB-9" target="GTJ9kHywWiIw0Ljh5JeB-11" edge="1">
          <mxGeometry width="50" height="50" relative="1" as="geometry">
            <mxPoint x="1275.84" y="390.01" as="sourcePoint" />
            <mxPoint x="1325.84" y="340.01" as="targetPoint" />
          </mxGeometry>
        </mxCell>
        <mxCell id="GTJ9kHywWiIw0Ljh5JeB-14" value="" style="endArrow=none;html=1;rounded=0;exitX=0;exitY=0.5;exitDx=0;exitDy=0;" parent="1" source="GTJ9kHywWiIw0Ljh5JeB-1" target="GTJ9kHywWiIw0Ljh5JeB-9" edge="1">
          <mxGeometry width="50" height="50" relative="1" as="geometry">
            <mxPoint x="1417.08" y="325.13" as="sourcePoint" />
            <mxPoint x="1622.6999999999998" y="349.38" as="targetPoint" />
          </mxGeometry>
        </mxCell>
        <mxCell id="GTJ9kHywWiIw0Ljh5JeB-15" value="Periodo" style="text;html=1;strokeColor=none;fillColor=none;align=center;verticalAlign=middle;whiteSpace=wrap;rounded=0;" parent="1" vertex="1">
          <mxGeometry x="1271.09" y="284.51" width="60" height="30" as="geometry" />
        </mxCell>
        <mxCell id="GTJ9kHywWiIw0Ljh5JeB-16" value="Inicio" style="text;html=1;strokeColor=none;fillColor=none;align=center;verticalAlign=middle;whiteSpace=wrap;rounded=0;" parent="1" vertex="1">
          <mxGeometry x="1193.84" y="183.13" width="60" height="30" as="geometry" />
        </mxCell>
        <mxCell id="GTJ9kHywWiIw0Ljh5JeB-17" value="Fin" style="text;html=1;strokeColor=none;fillColor=none;align=center;verticalAlign=middle;whiteSpace=wrap;rounded=0;" parent="1" vertex="1">
          <mxGeometry x="1193.84" y="321.38" width="60" height="30" as="geometry" />
        </mxCell>
        <mxCell id="GTJ9kHywWiIw0Ljh5JeB-18" value="" style="ellipse;whiteSpace=wrap;html=1;aspect=fixed;fillColor=#FFFFFF;" parent="1" vertex="1">
          <mxGeometry x="1162.49" y="531.38" width="40" height="40" as="geometry" />
        </mxCell>
        <mxCell id="GTJ9kHywWiIw0Ljh5JeB-19" value="" style="endArrow=none;html=1;rounded=0;" parent="1" source="GTJ9kHywWiIw0Ljh5JeB-18" target="4bZ0wKe7C5YbGH5dE9WU-77" edge="1">
          <mxGeometry width="50" height="50" relative="1" as="geometry">
            <mxPoint x="1274.8700000000001" y="807" as="sourcePoint" />
            <mxPoint x="1278.6299999999999" y="737.5" as="targetPoint" />
          </mxGeometry>
        </mxCell>
        <mxCell id="GTJ9kHywWiIw0Ljh5JeB-20" value="Sexo" style="text;html=1;align=center;verticalAlign=middle;resizable=0;points=[];autosize=1;strokeColor=none;fillColor=none;" parent="1" vertex="1">
          <mxGeometry x="1195.0000000000002" y="536.38" width="50" height="30" as="geometry" />
        </mxCell>
        <mxCell id="GTJ9kHywWiIw0Ljh5JeB-23" value="" style="ellipse;whiteSpace=wrap;html=1;aspect=fixed;fillColor=#000000;" parent="1" vertex="1">
          <mxGeometry x="603.75" y="936.13" width="40" height="40" as="geometry" />
        </mxCell>
        <mxCell id="GTJ9kHywWiIw0Ljh5JeB-24" value="ID" style="text;html=1;strokeColor=none;fillColor=none;align=center;verticalAlign=middle;whiteSpace=wrap;rounded=0;" parent="1" vertex="1">
          <mxGeometry x="608.75" y="908.13" width="30" height="30" as="geometry" />
        </mxCell>
        <mxCell id="GTJ9kHywWiIw0Ljh5JeB-25" value="" style="endArrow=none;html=1;rounded=0;" parent="1" source="PQ7QhmWz4cb6mw0TIRbO-7" target="GTJ9kHywWiIw0Ljh5JeB-23" edge="1">
          <mxGeometry width="50" height="50" relative="1" as="geometry">
            <mxPoint x="690" y="1012.3" as="sourcePoint" />
            <mxPoint x="740" y="962.3" as="targetPoint" />
          </mxGeometry>
        </mxCell>
        <mxCell id="GTJ9kHywWiIw0Ljh5JeB-27" style="edgeStyle=orthogonalEdgeStyle;rounded=0;orthogonalLoop=1;jettySize=auto;html=1;entryX=0.5;entryY=0;entryDx=0;entryDy=0;" parent="1" source="GTJ9kHywWiIw0Ljh5JeB-26" target="PQ7QhmWz4cb6mw0TIRbO-7" edge="1">
          <mxGeometry relative="1" as="geometry" />
        </mxCell>
        <mxCell id="GTJ9kHywWiIw0Ljh5JeB-30" value="(1, 1)" style="edgeLabel;html=1;align=center;verticalAlign=middle;resizable=0;points=[];" parent="GTJ9kHywWiIw0Ljh5JeB-27" connectable="0" vertex="1">
          <mxGeometry x="0.0133" relative="1" as="geometry">
            <mxPoint x="-24" y="-6" as="offset" />
          </mxGeometry>
        </mxCell>
        <mxCell id="GTJ9kHywWiIw0Ljh5JeB-32" value="Tiene" style="edgeLabel;html=1;align=center;verticalAlign=middle;resizable=0;points=[];" parent="GTJ9kHywWiIw0Ljh5JeB-27" connectable="0" vertex="1">
          <mxGeometry x="-0.2125" y="1" relative="1" as="geometry">
            <mxPoint x="20" y="-2" as="offset" />
          </mxGeometry>
        </mxCell>
        <mxCell id="GTJ9kHywWiIw0Ljh5JeB-26" value="Tiene" style="rhombus;whiteSpace=wrap;html=1;fillColor=#fff2cc;strokeColor=#d6b656;" parent="1" vertex="1">
          <mxGeometry x="612.5" y="716.5" width="111.25" height="80" as="geometry" />
        </mxCell>
        <mxCell id="lAJKYJz9y4R-1p3vpxUl-1" value="" style="ellipse;whiteSpace=wrap;html=1;aspect=fixed;fillColor=#FFFFFF;" parent="1" vertex="1">
          <mxGeometry x="683.75" y="936.13" width="40" height="40" as="geometry" />
        </mxCell>
        <mxCell id="lAJKYJz9y4R-1p3vpxUl-2" value="" style="endArrow=none;html=1;rounded=0;" parent="1" source="lAJKYJz9y4R-1p3vpxUl-1" target="PQ7QhmWz4cb6mw0TIRbO-7" edge="1">
          <mxGeometry width="50" height="50" relative="1" as="geometry">
            <mxPoint x="381" y="654" as="sourcePoint" />
            <mxPoint x="434" y="654" as="targetPoint" />
          </mxGeometry>
        </mxCell>
        <mxCell id="lAJKYJz9y4R-1p3vpxUl-3" value="Color" style="text;html=1;align=center;verticalAlign=middle;resizable=0;points=[];autosize=1;strokeColor=none;fillColor=none;" parent="1" vertex="1">
          <mxGeometry x="678.75" y="908.13" width="50" height="30" as="geometry" />
        </mxCell>
        <mxCell id="lAJKYJz9y4R-1p3vpxUl-8" value="" style="ellipse;whiteSpace=wrap;html=1;aspect=fixed;fillColor=#000000;" parent="1" vertex="1">
          <mxGeometry x="1729.33" y="243.13" width="40" height="40" as="geometry" />
        </mxCell>
        <mxCell id="lAJKYJz9y4R-1p3vpxUl-9" value="ID" style="text;html=1;strokeColor=none;fillColor=none;align=center;verticalAlign=middle;whiteSpace=wrap;rounded=0;" parent="1" vertex="1">
          <mxGeometry x="1734.33" y="213.13" width="30" height="30" as="geometry" />
        </mxCell>
        <mxCell id="lAJKYJz9y4R-1p3vpxUl-10" value="" style="endArrow=none;html=1;rounded=0;" parent="1" source="PQ7QhmWz4cb6mw0TIRbO-1" target="lAJKYJz9y4R-1p3vpxUl-8" edge="1">
          <mxGeometry width="50" height="50" relative="1" as="geometry">
            <mxPoint x="1629.33" y="468.56000000000006" as="sourcePoint" />
            <mxPoint x="1679.33" y="418.56000000000006" as="targetPoint" />
          </mxGeometry>
        </mxCell>
        <mxCell id="lAJKYJz9y4R-1p3vpxUl-28" style="edgeStyle=orthogonalEdgeStyle;rounded=0;orthogonalLoop=1;jettySize=auto;html=1;entryX=0.5;entryY=0;entryDx=0;entryDy=0;exitX=0.5;exitY=1;exitDx=0;exitDy=0;" parent="1" source="lAJKYJz9y4R-1p3vpxUl-11" target="lAJKYJz9y4R-1p3vpxUl-26" edge="1">
          <mxGeometry relative="1" as="geometry">
            <mxPoint x="2178.08" y="302.12" as="sourcePoint" />
          </mxGeometry>
        </mxCell>
        <mxCell id="w49QsyoUhsdQdudKb_It-1" value="Pertenece a" style="edgeLabel;html=1;align=center;verticalAlign=middle;resizable=0;points=[];" parent="lAJKYJz9y4R-1p3vpxUl-28" connectable="0" vertex="1">
          <mxGeometry x="-0.2403" y="2" relative="1" as="geometry">
            <mxPoint x="-47" y="13" as="offset" />
          </mxGeometry>
        </mxCell>
        <mxCell id="w49QsyoUhsdQdudKb_It-2" value="(1, 1)" style="edgeLabel;html=1;align=center;verticalAlign=middle;resizable=0;points=[];" parent="lAJKYJz9y4R-1p3vpxUl-28" connectable="0" vertex="1">
          <mxGeometry x="-0.2116" y="-1" relative="1" as="geometry">
            <mxPoint x="26" y="12" as="offset" />
          </mxGeometry>
        </mxCell>
        <mxCell id="lAJKYJz9y4R-1p3vpxUl-11" value="&lt;span style=&quot;font-size: 15px;&quot;&gt;DÍA&lt;/span&gt;" style="rounded=0;whiteSpace=wrap;html=1;fillColor=#f5f5f5;fontColor=#333333;strokeColor=#666666;" parent="1" vertex="1">
          <mxGeometry x="1585.58" y="584.37" width="120" height="60" as="geometry" />
        </mxCell>
        <mxCell id="lAJKYJz9y4R-1p3vpxUl-12" value="" style="ellipse;whiteSpace=wrap;html=1;aspect=fixed;fillColor=#000000;" parent="1" vertex="1">
          <mxGeometry x="1529.33" y="597.5500000000001" width="40" height="40" as="geometry" />
        </mxCell>
        <mxCell id="lAJKYJz9y4R-1p3vpxUl-13" value="Nombre" style="text;html=1;strokeColor=none;fillColor=none;align=center;verticalAlign=middle;whiteSpace=wrap;rounded=0;" parent="1" vertex="1">
          <mxGeometry x="1534.33" y="567.5500000000001" width="30" height="37" as="geometry" />
        </mxCell>
        <mxCell id="lAJKYJz9y4R-1p3vpxUl-14" value="" style="endArrow=none;html=1;rounded=0;" parent="1" source="lAJKYJz9y4R-1p3vpxUl-11" target="lAJKYJz9y4R-1p3vpxUl-12" edge="1">
          <mxGeometry width="50" height="50" relative="1" as="geometry">
            <mxPoint x="2033.080253096317" y="224.62" as="sourcePoint" />
            <mxPoint x="1751.2199999999998" y="223.62" as="targetPoint" />
          </mxGeometry>
        </mxCell>
        <mxCell id="lAJKYJz9y4R-1p3vpxUl-15" value="&lt;span style=&quot;font-size: 15px;&quot;&gt;PERIODO&lt;/span&gt;" style="rounded=0;whiteSpace=wrap;html=1;fillColor=#f5f5f5;fontColor=#333333;strokeColor=#666666;" parent="1" vertex="1">
          <mxGeometry x="1585.6999999999998" y="918.25" width="120" height="60" as="geometry" />
        </mxCell>
        <mxCell id="lAJKYJz9y4R-1p3vpxUl-16" value="" style="ellipse;whiteSpace=wrap;html=1;aspect=fixed;fillColor=#000000;" parent="1" vertex="1">
          <mxGeometry x="1529.33" y="928.25" width="40" height="40" as="geometry" />
        </mxCell>
        <mxCell id="lAJKYJz9y4R-1p3vpxUl-17" value="ID" style="text;html=1;strokeColor=none;fillColor=none;align=center;verticalAlign=middle;whiteSpace=wrap;rounded=0;" parent="1" vertex="1">
          <mxGeometry x="1534.33" y="898.25" width="30" height="30" as="geometry" />
        </mxCell>
        <mxCell id="lAJKYJz9y4R-1p3vpxUl-18" value="" style="endArrow=none;html=1;rounded=0;" parent="1" source="lAJKYJz9y4R-1p3vpxUl-15" target="lAJKYJz9y4R-1p3vpxUl-16" edge="1">
          <mxGeometry width="50" height="50" relative="1" as="geometry">
            <mxPoint x="1317.9499999999998" y="924.25" as="sourcePoint" />
            <mxPoint x="1303.9499999999998" y="917.25" as="targetPoint" />
          </mxGeometry>
        </mxCell>
        <mxCell id="lAJKYJz9y4R-1p3vpxUl-19" value="" style="ellipse;whiteSpace=wrap;html=1;aspect=fixed;fillColor=#FFFFFF;" parent="1" vertex="1">
          <mxGeometry x="1734.33" y="874.12" width="40" height="40" as="geometry" />
        </mxCell>
        <mxCell id="lAJKYJz9y4R-1p3vpxUl-20" value="Inicio" style="text;html=1;strokeColor=none;fillColor=none;align=center;verticalAlign=middle;whiteSpace=wrap;rounded=0;" parent="1" vertex="1">
          <mxGeometry x="1739.33" y="849.12" width="30" height="30" as="geometry" />
        </mxCell>
        <mxCell id="lAJKYJz9y4R-1p3vpxUl-21" value="" style="ellipse;whiteSpace=wrap;html=1;aspect=fixed;fillColor=#FFFFFF;" parent="1" vertex="1">
          <mxGeometry x="1734.33" y="979.12" width="40" height="40" as="geometry" />
        </mxCell>
        <mxCell id="lAJKYJz9y4R-1p3vpxUl-22" value="Fin" style="text;html=1;strokeColor=none;fillColor=none;align=center;verticalAlign=middle;whiteSpace=wrap;rounded=0;" parent="1" vertex="1">
          <mxGeometry x="1739.33" y="954.12" width="30" height="30" as="geometry" />
        </mxCell>
        <mxCell id="lAJKYJz9y4R-1p3vpxUl-23" value="" style="endArrow=none;html=1;rounded=0;" parent="1" source="lAJKYJz9y4R-1p3vpxUl-15" target="lAJKYJz9y4R-1p3vpxUl-19" edge="1">
          <mxGeometry width="50" height="50" relative="1" as="geometry">
            <mxPoint x="1320.6999999999998" y="1418.25" as="sourcePoint" />
            <mxPoint x="1341.6999999999998" y="1375.25" as="targetPoint" />
          </mxGeometry>
        </mxCell>
        <mxCell id="lAJKYJz9y4R-1p3vpxUl-24" value="" style="endArrow=none;html=1;rounded=0;" parent="1" source="lAJKYJz9y4R-1p3vpxUl-15" target="lAJKYJz9y4R-1p3vpxUl-21" edge="1">
          <mxGeometry width="50" height="50" relative="1" as="geometry">
            <mxPoint x="1655.6999999999998" y="928.25" as="sourcePoint" />
            <mxPoint x="1655.6999999999998" y="906.25" as="targetPoint" />
          </mxGeometry>
        </mxCell>
        <mxCell id="lAJKYJz9y4R-1p3vpxUl-27" style="edgeStyle=orthogonalEdgeStyle;rounded=0;orthogonalLoop=1;jettySize=auto;html=1;entryX=0.5;entryY=0;entryDx=0;entryDy=0;exitX=0.5;exitY=1;exitDx=0;exitDy=0;" parent="1" source="lAJKYJz9y4R-1p3vpxUl-26" target="lAJKYJz9y4R-1p3vpxUl-15" edge="1">
          <mxGeometry relative="1" as="geometry" />
        </mxCell>
        <mxCell id="lAJKYJz9y4R-1p3vpxUl-29" value="(0, n)" style="edgeLabel;html=1;align=center;verticalAlign=middle;resizable=0;points=[];" parent="lAJKYJz9y4R-1p3vpxUl-27" connectable="0" vertex="1">
          <mxGeometry x="-0.3962" y="1" relative="1" as="geometry">
            <mxPoint x="23" y="12" as="offset" />
          </mxGeometry>
        </mxCell>
        <mxCell id="lAJKYJz9y4R-1p3vpxUl-30" value="Tiene" style="edgeLabel;html=1;align=center;verticalAlign=middle;resizable=0;points=[];" parent="lAJKYJz9y4R-1p3vpxUl-27" connectable="0" vertex="1">
          <mxGeometry x="-0.1524" y="1" relative="1" as="geometry">
            <mxPoint x="-26" y="-3" as="offset" />
          </mxGeometry>
        </mxCell>
        <mxCell id="lAJKYJz9y4R-1p3vpxUl-26" value="Tiene" style="rhombus;whiteSpace=wrap;html=1;fillColor=#fff2cc;strokeColor=#d6b656;" parent="1" vertex="1">
          <mxGeometry x="1585.58" y="733.12" width="120" height="75" as="geometry" />
        </mxCell>
        <mxCell id="lAJKYJz9y4R-1p3vpxUl-36" style="edgeStyle=orthogonalEdgeStyle;rounded=0;orthogonalLoop=1;jettySize=auto;html=1;entryX=0.5;entryY=0;entryDx=0;entryDy=0;exitX=0.5;exitY=1;exitDx=0;exitDy=0;" parent="1" source="lAJKYJz9y4R-1p3vpxUl-34" target="lAJKYJz9y4R-1p3vpxUl-11" edge="1">
          <mxGeometry relative="1" as="geometry" />
        </mxCell>
        <mxCell id="w49QsyoUhsdQdudKb_It-5" value="Tiene" style="edgeLabel;html=1;align=center;verticalAlign=middle;resizable=0;points=[];" parent="lAJKYJz9y4R-1p3vpxUl-36" connectable="0" vertex="1">
          <mxGeometry x="-0.1958" relative="1" as="geometry">
            <mxPoint x="-26" y="10" as="offset" />
          </mxGeometry>
        </mxCell>
        <mxCell id="w49QsyoUhsdQdudKb_It-6" value="(0, n)" style="edgeLabel;html=1;align=center;verticalAlign=middle;resizable=0;points=[];" parent="lAJKYJz9y4R-1p3vpxUl-36" connectable="0" vertex="1">
          <mxGeometry x="-0.0688" relative="1" as="geometry">
            <mxPoint x="24" y="1" as="offset" />
          </mxGeometry>
        </mxCell>
        <mxCell id="lAJKYJz9y4R-1p3vpxUl-34" value="Tiene" style="rhombus;whiteSpace=wrap;html=1;fillColor=#fff2cc;strokeColor=#d6b656;" parent="1" vertex="1">
          <mxGeometry x="1585.58" y="378.62" width="120" height="75" as="geometry" />
        </mxCell>
        <mxCell id="lAJKYJz9y4R-1p3vpxUl-37" value="ID" style="text;html=1;strokeColor=#666666;fillColor=#f5f5f5;align=center;verticalAlign=middle;whiteSpace=wrap;rounded=0;fontColor=#333333;" parent="1" vertex="1">
          <mxGeometry x="1630.58" y="437.87" width="30" height="30" as="geometry" />
        </mxCell>
        <mxCell id="w49QsyoUhsdQdudKb_It-28" value="&lt;b style=&quot;border-color: var(--border-color); font-size: 10px;&quot;&gt;Restricción semántica:&lt;/b&gt;&amp;nbsp;Los periodos no pueden solaparse." style="shape=callout;whiteSpace=wrap;html=1;perimeter=calloutPerimeter;direction=west;fillColor=#ffe6cc;strokeColor=#d79b00;" parent="1" vertex="1">
          <mxGeometry x="1175.71" y="335" width="161.37" height="100.13" as="geometry" />
        </mxCell>
        <mxCell id="i4JJ-DvGvFb-LeGQvSu3-16" value="" style="ellipse;whiteSpace=wrap;html=1;aspect=fixed;fillColor=#FFFFFF;dashed=1;" parent="1" vertex="1">
          <mxGeometry x="2195" y="928.2500000000002" width="40" height="40" as="geometry" />
        </mxCell>
        <mxCell id="i4JJ-DvGvFb-LeGQvSu3-17" value="Edad" style="text;html=1;align=center;verticalAlign=middle;resizable=0;points=[];autosize=1;strokeColor=none;fillColor=none;" parent="1" vertex="1">
          <mxGeometry x="2165" y="968.25" width="50" height="30" as="geometry" />
        </mxCell>
        <mxCell id="i4JJ-DvGvFb-LeGQvSu3-18" value="" style="endArrow=none;html=1;rounded=0;" parent="1" source="i4JJ-DvGvFb-LeGQvSu3-16" target="1kCUsfdJUAUuM6tlL-a6-258" edge="1">
          <mxGeometry width="50" height="50" relative="1" as="geometry">
            <mxPoint x="2133" y="921" as="sourcePoint" />
            <mxPoint x="2204" y="882" as="targetPoint" />
          </mxGeometry>
        </mxCell>
        <mxCell id="i4JJ-DvGvFb-LeGQvSu3-60" style="edgeStyle=orthogonalEdgeStyle;rounded=0;orthogonalLoop=1;jettySize=auto;html=1;entryX=0.5;entryY=1;entryDx=0;entryDy=0;endArrow=none;endFill=0;" parent="1" source="i4JJ-DvGvFb-LeGQvSu3-41" target="i4JJ-DvGvFb-LeGQvSu3-59" edge="1">
          <mxGeometry relative="1" as="geometry" />
        </mxCell>
        <mxCell id="i4JJ-DvGvFb-LeGQvSu3-77" value="Crea" style="edgeLabel;html=1;align=center;verticalAlign=middle;resizable=0;points=[];" parent="i4JJ-DvGvFb-LeGQvSu3-60" connectable="0" vertex="1">
          <mxGeometry x="-0.3889" y="-5" relative="1" as="geometry">
            <mxPoint x="-25" y="53" as="offset" />
          </mxGeometry>
        </mxCell>
        <mxCell id="i4JJ-DvGvFb-LeGQvSu3-78" value="(0, n)" style="edgeLabel;html=1;align=center;verticalAlign=middle;resizable=0;points=[];" parent="i4JJ-DvGvFb-LeGQvSu3-60" connectable="0" vertex="1">
          <mxGeometry x="-0.6353" y="-3" relative="1" as="geometry">
            <mxPoint x="17" as="offset" />
          </mxGeometry>
        </mxCell>
        <mxCell id="i4JJ-DvGvFb-LeGQvSu3-41" value="&lt;span style=&quot;font-size: 15px;&quot;&gt;PRESTACIÓN&lt;/span&gt;" style="rounded=0;whiteSpace=wrap;html=1;fillColor=#f5f5f5;strokeColor=#666666;fontColor=#333333;" parent="1" vertex="1">
          <mxGeometry x="1940" y="1083.5" width="120" height="60" as="geometry" />
        </mxCell>
        <mxCell id="i4JJ-DvGvFb-LeGQvSu3-42" value="" style="ellipse;whiteSpace=wrap;html=1;aspect=fixed;fillColor=#000000;direction=south;" parent="1" vertex="1">
          <mxGeometry x="1869.9999999999998" y="1050" width="40" height="40" as="geometry" />
        </mxCell>
        <mxCell id="i4JJ-DvGvFb-LeGQvSu3-43" value="ID" style="text;html=1;strokeColor=none;fillColor=none;align=center;verticalAlign=middle;whiteSpace=wrap;rounded=0;" parent="1" vertex="1">
          <mxGeometry x="1829.9999999999998" y="1053.5" width="30" height="30" as="geometry" />
        </mxCell>
        <mxCell id="i4JJ-DvGvFb-LeGQvSu3-44" value="" style="ellipse;whiteSpace=wrap;html=1;aspect=fixed;fillColor=#FFFFFF;fontStyle=1;dashed=1;" parent="1" vertex="1">
          <mxGeometry x="2090" y="1055" width="40" height="40" as="geometry" />
        </mxCell>
        <mxCell id="i4JJ-DvGvFb-LeGQvSu3-45" value="" style="ellipse;whiteSpace=wrap;html=1;aspect=fixed;fillColor=#FFFFFF;dashed=1;" parent="1" vertex="1">
          <mxGeometry x="2145" y="1015" width="40" height="40" as="geometry" />
        </mxCell>
        <mxCell id="i4JJ-DvGvFb-LeGQvSu3-46" value="" style="ellipse;whiteSpace=wrap;html=1;aspect=fixed;fillColor=#FFFFFF;dashed=1;" parent="1" vertex="1">
          <mxGeometry x="2145" y="1095" width="40" height="40" as="geometry" />
        </mxCell>
        <mxCell id="i4JJ-DvGvFb-LeGQvSu3-47" value="" style="endArrow=none;html=1;rounded=0;" parent="1" source="i4JJ-DvGvFb-LeGQvSu3-41" target="i4JJ-DvGvFb-LeGQvSu3-42" edge="1">
          <mxGeometry width="50" height="50" relative="1" as="geometry">
            <mxPoint x="2000.6179200779393" y="1086.75" as="sourcePoint" />
            <mxPoint x="1953.9999999999998" y="1111.04" as="targetPoint" />
          </mxGeometry>
        </mxCell>
        <mxCell id="i4JJ-DvGvFb-LeGQvSu3-48" value="" style="endArrow=none;html=1;rounded=0;" parent="1" source="i4JJ-DvGvFb-LeGQvSu3-44" target="i4JJ-DvGvFb-LeGQvSu3-41" edge="1">
          <mxGeometry width="50" height="50" relative="1" as="geometry">
            <mxPoint x="1974.9999999999998" y="1111.17" as="sourcePoint" />
            <mxPoint x="1998.9999999999998" y="1111.17" as="targetPoint" />
          </mxGeometry>
        </mxCell>
        <mxCell id="i4JJ-DvGvFb-LeGQvSu3-49" value="" style="endArrow=none;html=1;rounded=0;" parent="1" source="i4JJ-DvGvFb-LeGQvSu3-45" target="i4JJ-DvGvFb-LeGQvSu3-44" edge="1">
          <mxGeometry width="50" height="50" relative="1" as="geometry">
            <mxPoint x="1909.9999999999998" y="1089.42" as="sourcePoint" />
            <mxPoint x="1933.9999999999998" y="1089.42" as="targetPoint" />
          </mxGeometry>
        </mxCell>
        <mxCell id="i4JJ-DvGvFb-LeGQvSu3-50" value="" style="endArrow=none;html=1;rounded=0;" parent="1" source="i4JJ-DvGvFb-LeGQvSu3-46" target="i4JJ-DvGvFb-LeGQvSu3-44" edge="1">
          <mxGeometry width="50" height="50" relative="1" as="geometry">
            <mxPoint x="2087.2" y="983.17" as="sourcePoint" />
            <mxPoint x="2005.0704225352115" y="928.88" as="targetPoint" />
          </mxGeometry>
        </mxCell>
        <mxCell id="i4JJ-DvGvFb-LeGQvSu3-51" value="Periodo" style="text;html=1;strokeColor=none;fillColor=none;align=center;verticalAlign=middle;whiteSpace=wrap;rounded=0;" parent="1" vertex="1">
          <mxGeometry x="2080" y="1095" width="60" height="30" as="geometry" />
        </mxCell>
        <mxCell id="i4JJ-DvGvFb-LeGQvSu3-54" style="edgeStyle=orthogonalEdgeStyle;rounded=0;orthogonalLoop=1;jettySize=auto;html=1;entryX=0.5;entryY=1;entryDx=0;entryDy=0;endArrow=none;endFill=0;" parent="1" source="i4JJ-DvGvFb-LeGQvSu3-52" target="i4JJ-DvGvFb-LeGQvSu3-41" edge="1">
          <mxGeometry relative="1" as="geometry" />
        </mxCell>
        <mxCell id="i4JJ-DvGvFb-LeGQvSu3-73" value="Solicita" style="edgeLabel;html=1;align=center;verticalAlign=middle;resizable=0;points=[];" parent="i4JJ-DvGvFb-LeGQvSu3-54" connectable="0" vertex="1">
          <mxGeometry x="-0.2643" y="-2" relative="1" as="geometry">
            <mxPoint x="-32" as="offset" />
          </mxGeometry>
        </mxCell>
        <mxCell id="i4JJ-DvGvFb-LeGQvSu3-74" value="(0, n)" style="edgeLabel;html=1;align=center;verticalAlign=middle;resizable=0;points=[];" parent="i4JJ-DvGvFb-LeGQvSu3-54" connectable="0" vertex="1">
          <mxGeometry x="-0.2643" relative="1" as="geometry">
            <mxPoint x="20" as="offset" />
          </mxGeometry>
        </mxCell>
        <mxCell id="i4JJ-DvGvFb-LeGQvSu3-52" value="Obtiene" style="rhombus;whiteSpace=wrap;html=1;fillColor=#fff2cc;strokeColor=#d6b656;" parent="1" vertex="1">
          <mxGeometry x="1940" y="1338.25" width="120" height="75" as="geometry" />
        </mxCell>
        <mxCell id="i4JJ-DvGvFb-LeGQvSu3-57" style="edgeStyle=orthogonalEdgeStyle;rounded=0;orthogonalLoop=1;jettySize=auto;html=1;entryX=0;entryY=0.5;entryDx=0;entryDy=0;endArrow=none;endFill=0;" parent="1" source="i4JJ-DvGvFb-LeGQvSu3-55" target="i4JJ-DvGvFb-LeGQvSu3-41" edge="1">
          <mxGeometry relative="1" as="geometry" />
        </mxCell>
        <mxCell id="i4JJ-DvGvFb-LeGQvSu3-62" value="Realiza" style="edgeLabel;html=1;align=center;verticalAlign=middle;resizable=0;points=[];" parent="i4JJ-DvGvFb-LeGQvSu3-57" connectable="0" vertex="1">
          <mxGeometry x="-0.0377" y="1" relative="1" as="geometry">
            <mxPoint x="7" y="-12" as="offset" />
          </mxGeometry>
        </mxCell>
        <mxCell id="i4JJ-DvGvFb-LeGQvSu3-63" value="(0, n)" style="edgeLabel;html=1;align=center;verticalAlign=middle;resizable=0;points=[];" parent="i4JJ-DvGvFb-LeGQvSu3-57" connectable="0" vertex="1">
          <mxGeometry x="-0.0098" y="-1" relative="1" as="geometry">
            <mxPoint x="-6" y="16" as="offset" />
          </mxGeometry>
        </mxCell>
        <mxCell id="i4JJ-DvGvFb-LeGQvSu3-55" value="Realiza" style="rhombus;whiteSpace=wrap;html=1;fillColor=#fff2cc;strokeColor=#d6b656;" parent="1" vertex="1">
          <mxGeometry x="1040" y="1076" width="120" height="75" as="geometry" />
        </mxCell>
        <mxCell id="i4JJ-DvGvFb-LeGQvSu3-59" value="Crea" style="rhombus;whiteSpace=wrap;html=1;fillColor=#fff2cc;strokeColor=#d6b656;" parent="1" vertex="1">
          <mxGeometry x="1940" y="594.5" width="120" height="75" as="geometry" />
        </mxCell>
        <mxCell id="i4JJ-DvGvFb-LeGQvSu3-68" value="" style="ellipse;whiteSpace=wrap;html=1;aspect=fixed;fillColor=#FFFFFF;dashed=1;" parent="1" vertex="1">
          <mxGeometry x="2060" y="1156" width="40" height="40" as="geometry" />
        </mxCell>
        <mxCell id="i4JJ-DvGvFb-LeGQvSu3-69" value="" style="endArrow=none;html=1;rounded=0;" parent="1" source="i4JJ-DvGvFb-LeGQvSu3-68" target="i4JJ-DvGvFb-LeGQvSu3-41" edge="1">
          <mxGeometry width="50" height="50" relative="1" as="geometry">
            <mxPoint x="2101" y="1092" as="sourcePoint" />
            <mxPoint x="2070" y="1103" as="targetPoint" />
          </mxGeometry>
        </mxCell>
        <mxCell id="i4JJ-DvGvFb-LeGQvSu3-70" value="Vigente?" style="text;html=1;strokeColor=none;fillColor=none;align=center;verticalAlign=middle;whiteSpace=wrap;rounded=0;" parent="1" vertex="1">
          <mxGeometry x="2050" y="1196" width="60" height="30" as="geometry" />
        </mxCell>
        <mxCell id="i4JJ-DvGvFb-LeGQvSu3-71" value="Inicio" style="text;html=1;strokeColor=none;fillColor=none;align=center;verticalAlign=middle;whiteSpace=wrap;rounded=0;" parent="1" vertex="1">
          <mxGeometry x="2175" y="1020" width="60" height="30" as="geometry" />
        </mxCell>
        <mxCell id="i4JJ-DvGvFb-LeGQvSu3-72" value="Fin" style="text;html=1;strokeColor=none;fillColor=none;align=center;verticalAlign=middle;whiteSpace=wrap;rounded=0;" parent="1" vertex="1">
          <mxGeometry x="2170" y="1100" width="60" height="30" as="geometry" />
        </mxCell>
        <mxCell id="i4JJ-DvGvFb-LeGQvSu3-79" value="&lt;b&gt;Restricción semántica:&lt;/b&gt;&amp;nbsp;Un usuario no puede solicitar más de 5 prestaciones en periodos coincidentes . En caso de ser estudiante o menor el total se convierte a 7 prestaciones." style="shape=callout;whiteSpace=wrap;html=1;perimeter=calloutPerimeter;direction=south;fillColor=#ffe6cc;strokeColor=#d79b00;" parent="1" vertex="1">
          <mxGeometry x="2060" y="1238.25" width="210" height="121.75" as="geometry" />
        </mxCell>
        <mxCell id="i4JJ-DvGvFb-LeGQvSu3-80" value="" style="ellipse;whiteSpace=wrap;html=1;aspect=fixed;fillColor=#FFFFFF;" parent="1" vertex="1">
          <mxGeometry x="2145" y="1151" width="40" height="40" as="geometry" />
        </mxCell>
        <mxCell id="i4JJ-DvGvFb-LeGQvSu3-81" value="Fecha de devolución" style="text;html=1;strokeColor=none;fillColor=none;align=center;verticalAlign=middle;whiteSpace=wrap;rounded=0;" parent="1" vertex="1">
          <mxGeometry x="2190" y="1156" width="60" height="30" as="geometry" />
        </mxCell>
        <mxCell id="i4JJ-DvGvFb-LeGQvSu3-82" value="" style="endArrow=none;html=1;rounded=0;" parent="1" source="i4JJ-DvGvFb-LeGQvSu3-80" target="i4JJ-DvGvFb-LeGQvSu3-41" edge="1">
          <mxGeometry width="50" height="50" relative="1" as="geometry">
            <mxPoint x="2159" y="1113" as="sourcePoint" />
            <mxPoint x="2136" y="1097" as="targetPoint" />
          </mxGeometry>
        </mxCell>
        <mxCell id="U-pOeurg4QrhAbUHncbN-1" value="" style="ellipse;whiteSpace=wrap;html=1;aspect=fixed;fillColor=#FFFFFF;" parent="1" vertex="1">
          <mxGeometry x="705" y="-7.810000000000058" width="40" height="40" as="geometry" />
        </mxCell>
        <mxCell id="U-pOeurg4QrhAbUHncbN-3" value="" style="endArrow=none;html=1;rounded=0;" parent="1" source="1kCUsfdJUAUuM6tlL-a6-197" target="U-pOeurg4QrhAbUHncbN-1" edge="1">
          <mxGeometry width="50" height="50" relative="1" as="geometry">
            <mxPoint x="654" y="60" as="sourcePoint" />
            <mxPoint x="654" y="37" as="targetPoint" />
          </mxGeometry>
        </mxCell>
        <mxCell id="U-pOeurg4QrhAbUHncbN-4" value="" style="ellipse;whiteSpace=wrap;html=1;aspect=fixed;fillColor=#FFFFFF;" parent="1" vertex="1">
          <mxGeometry x="672.5" y="-71.25000000000006" width="40" height="40" as="geometry" />
        </mxCell>
        <mxCell id="U-pOeurg4QrhAbUHncbN-5" value="" style="ellipse;whiteSpace=wrap;html=1;aspect=fixed;fillColor=#FFFFFF;" parent="1" vertex="1">
          <mxGeometry x="740" y="-70.00000000000006" width="40" height="40" as="geometry" />
        </mxCell>
        <mxCell id="U-pOeurg4QrhAbUHncbN-6" value="" style="endArrow=none;html=1;rounded=0;" parent="1" source="U-pOeurg4QrhAbUHncbN-1" target="U-pOeurg4QrhAbUHncbN-4" edge="1">
          <mxGeometry width="50" height="50" relative="1" as="geometry">
            <mxPoint x="690" y="60" as="sourcePoint" />
            <mxPoint x="720" y="35" as="targetPoint" />
          </mxGeometry>
        </mxCell>
        <mxCell id="U-pOeurg4QrhAbUHncbN-7" value="" style="endArrow=none;html=1;rounded=0;" parent="1" source="U-pOeurg4QrhAbUHncbN-1" target="U-pOeurg4QrhAbUHncbN-5" edge="1">
          <mxGeometry width="50" height="50" relative="1" as="geometry">
            <mxPoint x="700" y="70" as="sourcePoint" />
            <mxPoint x="730" y="45" as="targetPoint" />
          </mxGeometry>
        </mxCell>
        <mxCell id="U-pOeurg4QrhAbUHncbN-9" value="Georreferenciación" style="text;html=1;strokeColor=none;fillColor=none;align=center;verticalAlign=middle;whiteSpace=wrap;rounded=0;" parent="1" vertex="1">
          <mxGeometry x="785" y="-5.684341886080802e-14" width="30" height="30" as="geometry" />
        </mxCell>
        <mxCell id="U-pOeurg4QrhAbUHncbN-10" value="Latitud" style="text;html=1;strokeColor=none;fillColor=none;align=center;verticalAlign=middle;whiteSpace=wrap;rounded=0;" parent="1" vertex="1">
          <mxGeometry x="677.5" y="-105.93000000000006" width="30" height="30" as="geometry" />
        </mxCell>
        <mxCell id="U-pOeurg4QrhAbUHncbN-11" value="Longitud" style="text;html=1;strokeColor=none;fillColor=none;align=center;verticalAlign=middle;whiteSpace=wrap;rounded=0;" parent="1" vertex="1">
          <mxGeometry x="745" y="-105.93000000000006" width="30" height="30" as="geometry" />
        </mxCell>
        <mxCell id="KqJ0mgOLyfm1o9Krcu3l-1" value="" style="ellipse;whiteSpace=wrap;html=1;aspect=fixed;fillColor=#FFFFFF;dashed=1;" parent="1" vertex="1">
          <mxGeometry x="2635" y="-70" width="40" height="40" as="geometry" />
        </mxCell>
        <mxCell id="KqJ0mgOLyfm1o9Krcu3l-2" value="Stock" style="text;html=1;strokeColor=none;fillColor=none;align=center;verticalAlign=middle;whiteSpace=wrap;rounded=0;" parent="1" vertex="1">
          <mxGeometry x="2677.5" y="-65" width="30" height="30" as="geometry" />
        </mxCell>
        <mxCell id="KqJ0mgOLyfm1o9Krcu3l-3" value="" style="ellipse;whiteSpace=wrap;html=1;aspect=fixed;fillColor=#FFFFFF;dashed=1;" parent="1" vertex="1">
          <mxGeometry x="2615" y="-18.749999999999947" width="40" height="40" as="geometry" />
        </mxCell>
        <mxCell id="KqJ0mgOLyfm1o9Krcu3l-4" value="Disponible?" style="text;html=1;strokeColor=none;fillColor=none;align=center;verticalAlign=middle;whiteSpace=wrap;rounded=0;" parent="1" vertex="1">
          <mxGeometry x="2680" y="-17.940000000000012" width="30" height="30" as="geometry" />
        </mxCell>
        <mxCell id="KqJ0mgOLyfm1o9Krcu3l-6" value="" style="endArrow=none;html=1;rounded=0;" parent="1" source="KqJ0mgOLyfm1o9Krcu3l-1" target="1kCUsfdJUAUuM6tlL-a6-177" edge="1">
          <mxGeometry width="50" height="50" relative="1" as="geometry">
            <mxPoint x="2618" y="-58" as="sourcePoint" />
            <mxPoint x="2573" y="-17" as="targetPoint" />
          </mxGeometry>
        </mxCell>
        <mxCell id="KqJ0mgOLyfm1o9Krcu3l-8" value="" style="endArrow=none;html=1;rounded=0;" parent="1" source="KqJ0mgOLyfm1o9Krcu3l-3" target="1kCUsfdJUAUuM6tlL-a6-177" edge="1">
          <mxGeometry width="50" height="50" relative="1" as="geometry">
            <mxPoint x="2647" y="-32" as="sourcePoint" />
            <mxPoint x="2600" y="-13" as="targetPoint" />
          </mxGeometry>
        </mxCell>
        <mxCell id="KqJ0mgOLyfm1o9Krcu3l-22" value="" style="rounded=0;whiteSpace=wrap;html=1;fillColor=none;" parent="1" vertex="1">
          <mxGeometry x="1048.75" y="58" width="102.5" height="43.75" as="geometry" />
        </mxCell>
        <mxCell id="KqJ0mgOLyfm1o9Krcu3l-24" value="" style="rounded=0;whiteSpace=wrap;html=1;fillColor=none;" parent="1" vertex="1">
          <mxGeometry x="1594.45" y="242.25" width="102.5" height="43.75" as="geometry" />
        </mxCell>
        <mxCell id="KqJ0mgOLyfm1o9Krcu3l-25" value="" style="rounded=0;whiteSpace=wrap;html=1;fillColor=none;" parent="1" vertex="1">
          <mxGeometry x="1594.33" y="592.49" width="102.5" height="43.75" as="geometry" />
        </mxCell>
        <mxCell id="KqJ0mgOLyfm1o9Krcu3l-26" value="" style="rounded=0;whiteSpace=wrap;html=1;fillColor=none;" parent="1" vertex="1">
          <mxGeometry x="1594.33" y="926.38" width="102.5" height="43.75" as="geometry" />
        </mxCell>
        <mxCell id="9yjotnjsYalBggkAx9e3-1" value="&lt;b style=&quot;border-color: var(--border-color); font-size: 10px;&quot;&gt;Restricción semántica:&lt;/b&gt;&amp;nbsp;Solo puede haber un periodo con &#39;fin&#39; igual a NULL." style="shape=callout;whiteSpace=wrap;html=1;perimeter=calloutPerimeter;direction=east;fillColor=#ffe6cc;strokeColor=#d79b00;" parent="1" vertex="1">
          <mxGeometry x="1246.21" y="103.75" width="161.37" height="100.13" as="geometry" />
        </mxCell>
        <mxCell id="zg_JoLwCa4jhOal9cZaV-1" value="" style="rounded=0;whiteSpace=wrap;html=1;fillColor=none;" vertex="1" parent="1">
          <mxGeometry x="617.4999999999999" y="848.38" width="102.5" height="43.75" as="geometry" />
        </mxCell>
      </root>
    </mxGraphModel>
  </diagram>
</mxfile>
